SplineFontDB: 3.0
FontName: Antonio-Regular
FullName: Antonio Regular
FamilyName: Antonio
Weight: Regular
Copyright: Copyright (c) 2011-12, vernon adams (vern@newtypography.co.uk), with Reserved Font Names 'Antonio'
Version: 1
ItalicAngle: 0
UnderlinePosition: 0
UnderlineWidth: 0
Ascent: 1638
Descent: 410
UFOAscent: 1779
UFODescent: -647
LayerCount: 2
Layer: 0 0 "Back"  1
Layer: 1 0 "Fore"  0
FSType: 0
OS2Version: 0
OS2_WeightWidthSlopeOnly: 0
OS2_UseTypoMetrics: 1
CreationTime: 1358482083
ModificationTime: 1358701410
PfmFamily: 33
TTFWeight: 400
TTFWidth: 1
LineGap: 0
VLineGap: 0
OS2TypoAscent: 2342
OS2TypoAOffset: 0
OS2TypoDescent: -612
OS2TypoDOffset: 0
OS2TypoLinegap: 0
OS2WinAscent: 2342
OS2WinAOffset: 0
OS2WinDescent: 612
OS2WinDOffset: 0
HheadAscent: 2342
HheadAOffset: 0
HheadDescent: -612
HheadDOffset: 0
OS2Vendor: 'newt'
Lookup: 258 0 0 "'kern' Horizontal Kerning lookup 0"  {"'kern' Horizontal Kerning lookup 0 per glyph data 0"  "'kern' Horizontal Kerning lookup 0 kerning class 1"  } ['kern' ('DFLT' <'dflt' > 'latn' <'dflt' > ) ]
MarkAttachClasses: 1
DEI: 91125
KernClass2: 24 29 "'kern' Horizontal Kerning lookup 0 kerning class 1" 
 89 A Aacute Abreve Acircumflex Adieresis Agrave Amacron Aogonek Aring Atilde uni0200 uni0202
 9 B uni1E02
 47 C Cacute Ccaron Ccedilla Ccircumflex Cdotaccent
 16 D Dcaron uni1E0A
 9 F uni1E1E
 52 G Gbreve Gcircumflex Gcommaaccent Gdotaccent uni01F4
 13 J Jcircumflex
 14 K Kcommaaccent
 28 L Lacute Lcaron Lcommaaccent
 89 O Oacute Obreve Ocircumflex Odieresis Ograve Ohungarumlaut Omacron Otilde uni020C uni020E
 9 P uni1E56
 44 R Racute Rcaron Rcommaaccent uni0210 uni0212
 1 V
 37 W Wacute Wcircumflex Wdieresis Wgrave
 37 Y Yacute Ycircumflex Ydieresis Ygrave
 9 b uni1E03
 47 c cacute ccaron ccedilla ccircumflex cdotaccent
 9 f uni1E1F
 14 k kcommaaccent
 89 o oacute obreve ocircumflex odieresis ograve ohungarumlaut omacron otilde uni020D uni020F
 44 r racute rcaron rcommaaccent uni0211 uni0213

StartChar: .notdef
Encoding: 65536 -1 0
Width: 1024
VWidth: 0
Flags: HW
LayerCount: 2
UndoRedoHistory
Layer: 1
Undoes
EndUndoes
Redoes
EndRedoes
EndUndoRedoHistory
Fore
SplineSet
820 102 m 1
 820 990 l 1
 204 990 l 1
 204 102 l 1
 820 102 l 1
102 1092 m 1
 922 1092 l 1
 922 0 l 1
 102 0 l 1
 102 1092 l 1
EndSplineSet
EndChar

StartChar: A
Encoding: 65 65 1
Width: 939
VWidth: 0
Flags: HW
LayerCount: 2
UndoRedoHistory
Layer: 1
Undoes
EndUndoes
Redoes
EndRedoes
EndUndoRedoHistory
Fore
SplineSet
332 504 m 1
 602 504 l 1
 463 1434 l 1
 460 1434 l 1
 332 504 l 1
333 1760 m 1
 582 1760 l 1
 873 0 l 1
 678 0 l 1
 628 336 l 1
 309 336 l 1
 263 0 l 1
 66 0 l 1
 333 1760 l 1
EndSplineSet
EndChar

StartChar: AE
Encoding: 198 198 2
Width: 1206
VWidth: 0
Flags: HW
LayerCount: 2
UndoRedoHistory
Layer: 1
Undoes
EndUndoes
Redoes
EndRedoes
EndUndoRedoHistory
Fore
SplineSet
596 497 m 1
 596 1590 l 1
 570 1589 l 1
 359 497 l 1
 596 497 l 1
419 1760 m 1
 1105 1760 l 1
 1105 1588 l 1
 803 1588 l 1
 803 986 l 1
 1088 986 l 1
 1088 812 l 1
 803 812 l 1
 803 172 l 1
 1109 172 l 1
 1109 0 l 1
 596 0 l 1
 596 336 l 1
 329 336 l 1
 264 0 l 1
 66 0 l 1
 419 1760 l 1
EndSplineSet
EndChar

StartChar: B
Encoding: 66 66 12
Width: 952
VWidth: 0
Flags: HW
LayerCount: 2
UndoRedoHistory
Layer: 1
Undoes
EndUndoes
Redoes
EndRedoes
EndUndoRedoHistory
Fore
SplineSet
617 1361 m 1
 616 1560 575 1591 469 1591 c 2
 367 1591 l 1
 367 1025 l 1
 484 1025 l 2
 596 1025 617 1057 617 1312 c 2
 617 1361 l 1
643 560 m 2
 643 777 619 866 505 866 c 2
 367 866 l 1
 367 167 l 1
 494 167 l 2
 611 167 643 241 643 499 c 2
 643 560 l 2
160 1760 m 1
 478 1760 l 2
 747 1760 820 1647 822 1364 c 1
 822 1326 l 2
 822 1130 793 1008 689 953 c 1
 814 902 851 730 851 530 c 2
 851 493 l 1
 847 149 763 0 504 0 c 2
 160 0 l 1
 160 1760 l 1
EndSplineSet
EndChar

StartChar: C
Encoding: 67 67 13
Width: 918
VWidth: 0
Flags: HW
LayerCount: 2
UndoRedoHistory
Layer: 1
Undoes
EndUndoes
Redoes
EndRedoes
EndUndoRedoHistory
Fore
SplineSet
124 1252 m 2
 124 1562 190 1781 477 1781 c 0
 752 1781 809 1572 809 1274 c 2
 809 1079 l 1
 606 1079 l 1
 606 1275 l 2
 606 1494 586 1602 477 1602 c 0
 361 1602 331 1488 331 1276 c 2
 331 514 l 2
 331 257 357 155 471 155 c 0
 582 155 606 259 606 515 c 2
 606 710 l 1
 811 710 l 1
 811 517 l 2
 811 165 733 -21 470 -21 c 0
 213 -21 124 172 124 519 c 2
 124 1252 l 2
EndSplineSet
EndChar

StartChar: D
Encoding: 68 68 19
Width: 949
VWidth: 0
Flags: HW
LayerCount: 2
UndoRedoHistory
Layer: 1
Undoes
EndUndoes
Redoes
EndRedoes
EndUndoRedoHistory
Fore
SplineSet
622 1287 m 2
 622 1508 573 1596 455 1596 c 2
 349 1596 l 1
 349 167 l 1
 455 167 l 2
 567 167 622 223 622 477 c 2
 622 1287 l 2
143 1760 m 1
 474 1760 l 2
 750 1760 828 1579 828 1282 c 2
 829 509 l 2
 829 152 731 0 467 0 c 2
 143 0 l 1
 143 1760 l 1
EndSplineSet
EndChar

StartChar: Delta
Encoding: 916 916 22
Width: 939
VWidth: 0
Flags: HW
LayerCount: 2
UndoRedoHistory
Layer: 1
Undoes
EndUndoes
Redoes
EndRedoes
EndUndoRedoHistory
Fore
SplineSet
653 168 m 1
 463 1434 l 1
 460 1434 l 1
 286 168 l 1
 653 168 l 1
333 1760 m 1
 582 1760 l 1
 873 0 l 1
 66 0 l 1
 333 1760 l 1
EndSplineSet
EndChar

StartChar: E
Encoding: 69 69 23
Width: 771
VWidth: 0
Flags: HW
LayerCount: 2
UndoRedoHistory
Layer: 1
Undoes
EndUndoes
Redoes
EndRedoes
EndUndoRedoHistory
Fore
SplineSet
144 1760 m 1
 670 1760 l 1
 670 1588 l 1
 351 1588 l 1
 351 986 l 1
 653 986 l 1
 653 814 l 1
 351 814 l 1
 351 172 l 1
 674 172 l 1
 674 0 l 1
 144 0 l 1
 144 1760 l 1
EndSplineSet
EndChar

StartChar: Euro
Encoding: 8364 8364 34
Width: 1076
VWidth: 0
Flags: HW
LayerCount: 2
UndoRedoHistory
Layer: 1
Undoes
EndUndoes
Redoes
EndRedoes
EndUndoRedoHistory
Fore
SplineSet
23 1106 m 1
 518 1106 l 1
 518 966 l 1
 254 966 l 1
 254 869 l 1
 518 869 l 1
 518 721 l 1
 23 721 l 1
 23 869 l 1
 164 869 l 1
 164 966 l 1
 23 966 l 1
 23 1106 l 1
EndSplineSet
Refer: 13 67 N 1 0 0 1 0 0 2
EndChar

StartChar: F
Encoding: 70 70 35
Width: 746
VWidth: 0
Flags: HW
LayerCount: 2
UndoRedoHistory
Layer: 1
Undoes
EndUndoes
Redoes
EndRedoes
EndUndoRedoHistory
Fore
SplineSet
143 1760 m 1
 673 1760 l 1
 673 1587 l 1
 349 1587 l 1
 349 1031 l 1
 653 1031 l 1
 653 856 l 1
 349 856 l 1
 349 0 l 1
 143 0 l 1
 143 1760 l 1
EndSplineSet
EndChar

StartChar: G
Encoding: 71 71 36
Width: 942
VWidth: 0
Flags: HW
LayerCount: 2
UndoRedoHistory
Layer: 1
Undoes
EndUndoes
Redoes
EndRedoes
EndUndoRedoHistory
Fore
SplineSet
124 1262 m 2
 124 1570 199 1781 482 1781 c 0
 774 1781 813 1568 813 1258 c 2
 813 1122 l 1
 613 1122 l 1
 613 1351 l 2
 613 1522 588 1602 482 1602 c 0
 368 1602 331 1517 331 1271 c 2
 331 531 l 2
 331 261 356 155 476 155 c 0
 590 155 623 261 623 535 c 2
 623 764 l 1
 480 764 l 1
 480 924 l 1
 813 924 l 1
 813 0 l 1
 704 0 l 1
 676 136 l 1
 638 37 556 -17 441 -17 c 0
 237 -17 124 139 124 524 c 2
 124 1262 l 2
EndSplineSet
EndChar

StartChar: H
Encoding: 72 72 41
Width: 984
VWidth: 0
Flags: HW
LayerCount: 2
UndoRedoHistory
Layer: 1
Undoes
EndUndoes
Redoes
EndRedoes
EndUndoRedoHistory
Fore
SplineSet
633 1760 m 1
 840 1760 l 1
 840 0 l 1
 633 0 l 1
 633 853 l 1
 351 853 l 1
 351 0 l 1
 144 0 l 1
 144 1760 l 1
 351 1760 l 1
 351 1022 l 1
 633 1022 l 1
 633 1760 l 1
EndSplineSet
EndChar

StartChar: Hbar
Encoding: 294 294 42
Width: 984
VWidth: 0
Flags: HW
LayerCount: 2
UndoRedoHistory
Layer: 1
Undoes
EndUndoes
Redoes
EndRedoes
EndUndoRedoHistory
Fore
SplineSet
55 1504 m 5
 951 1504 l 5
 951 1398 l 5
 55 1398 l 5
 55 1504 l 5
EndSplineSet
Refer: 41 72 N 1 0 0 1 0 0 2
EndChar

StartChar: I
Encoding: 73 73 44
Width: 527
VWidth: 0
Flags: HW
LayerCount: 2
UndoRedoHistory
Layer: 1
Undoes
EndUndoes
Redoes
EndRedoes
EndUndoRedoHistory
Fore
SplineSet
160 1760 m 1
 367 1760 l 1
 367 0 l 1
 160 0 l 1
 160 1760 l 1
EndSplineSet
EndChar

StartChar: J
Encoding: 74 74 55
Width: 858
VWidth: 0
Flags: HW
LayerCount: 2
UndoRedoHistory
Layer: 1
Undoes
EndUndoes
Redoes
EndRedoes
EndUndoRedoHistory
Fore
SplineSet
511 1760 m 1
 718 1760 l 1
 718 426 l 2
 718 130 615 -21 404 -21 c 0
 181 -21 82 115 82 389 c 2
 82 619 l 1
 284 619 l 1
 284 402 l 2
 284 268 288 155 398 155 c 0
 508 155 511 261 511 418 c 2
 511 1760 l 1
EndSplineSet
EndChar

StartChar: K
Encoding: 75 75 57
Width: 894
VWidth: 0
Flags: HW
LayerCount: 2
UndoRedoHistory
Layer: 1
Undoes
EndUndoes
Redoes
EndRedoes
EndUndoRedoHistory
Fore
SplineSet
664 1760 m 1
 872 1760 l 1
 544 891 l 1
 895 0 l 1
 679 0 l 1
 353 842 l 1
 353 0 l 1
 144 0 l 1
 144 1760 l 1
 351 1760 l 1
 351 921 l 1
 664 1760 l 1
EndSplineSet
EndChar

StartChar: L
Encoding: 76 76 59
Width: 712
VWidth: 0
Flags: HW
LayerCount: 2
UndoRedoHistory
Layer: 1
Undoes
EndUndoes
Redoes
EndRedoes
EndUndoRedoHistory
Fore
SplineSet
144 1760 m 1
 351 1760 l 1
 351 171 l 1
 676 171 l 1
 676 0 l 1
 144 0 l 1
 144 1760 l 1
EndSplineSet
EndChar

StartChar: Lcaron
Encoding: 317 317 61
Width: 742
VWidth: 0
Flags: HW
LayerCount: 2
UndoRedoHistory
Layer: 1
Undoes
EndUndoes
Redoes
EndRedoes
EndUndoRedoHistory
Fore
SplineSet
625 1753 m 1
 860 1753 l 1
 860 1535 l 1
 774 1238 l 1
 684 1238 l 1
 733 1526 l 1
 625 1526 l 1
 625 1753 l 1
EndSplineSet
Refer: 59 76 N 1 0 0 1 0 0 2
EndChar

StartChar: Lslash
Encoding: 321 321 64
Width: 748
VWidth: 0
Flags: HW
LayerCount: 2
UndoRedoHistory
Layer: 1
Undoes
EndUndoes
Redoes
EndRedoes
EndUndoRedoHistory
Fore
SplineSet
-1 916 m 5
 554 1139 l 5
 554 987 l 5
 -1 764 l 5
 -1 916 l 5
EndSplineSet
Refer: 59 76 N 1 0 0 1 0 0 2
EndChar

StartChar: M
Encoding: 77 77 65
Width: 1296
VWidth: 0
Flags: HW
LayerCount: 2
UndoRedoHistory
Layer: 1
Undoes
EndUndoes
Redoes
EndRedoes
EndUndoRedoHistory
Fore
SplineSet
893 1760 m 1
 1152 1760 l 1
 1152 0 l 1
 968 0 l 1
 968 706 l 1
 985 1364 l 1
 746 3 l 1
 559 3 l 1
 310 1364 l 1
 327 706 l 1
 327 0 l 1
 144 0 l 1
 144 1760 l 1
 402 1760 l 1
 654 313 l 1
 893 1760 l 1
EndSplineSet
EndChar

StartChar: N
Encoding: 78 78 66
Width: 1014
VWidth: 0
Flags: HW
LayerCount: 2
UndoRedoHistory
Layer: 1
Undoes
EndUndoes
Redoes
EndRedoes
EndUndoRedoHistory
Fore
SplineSet
687 1760 m 1
 870 1760 l 1
 870 0 l 1
 718 0 l 1
 323 1208 l 1
 335 764 l 1
 335 0 l 1
 144 0 l 1
 144 1760 l 1
 300 1760 l 1
 708 562 l 1
 687 1071 l 1
 687 1760 l 1
EndSplineSet
EndChar

StartChar: O
Encoding: 79 79 71
Width: 944
VWidth: 0
Flags: HW
LayerCount: 2
UndoRedoHistory
Layer: 1
Undoes
EndUndoes
Redoes
EndRedoes
EndUndoRedoHistory
Fore
SplineSet
613 1294 m 2
 613 1505 591 1604 479 1604 c 0
 363 1604 331 1506 331 1295 c 2
 331 504 l 2
 331 244 355 158 474 158 c 0
 588 158 613 246 613 504 c 2
 613 1294 l 2
124 1282 m 2
 124 1585 197 1782 479 1782 c 0
 761 1782 820 1585 820 1282 c 2
 820 506 l 2
 820 153 738 -20 474 -20 c 0
 210 -20 124 153 124 506 c 2
 124 1282 l 2
EndSplineSet
EndChar

StartChar: OE
Encoding: 338 338 72
Width: 1214
VWidth: 0
Flags: HW
LayerCount: 2
UndoRedoHistory
Layer: 1
Undoes
EndUndoes
Redoes
EndRedoes
EndUndoRedoHistory
Fore
SplineSet
609 178 m 1
 609 1581 l 1
 478 1581 l 2
 362 1581 331 1504 331 1293 c 2
 331 505 l 2
 331 245 353 179 473 178 c 1
 609 178 l 1
478 1760 m 2
 1112 1760 l 1
 1112 1588 l 1
 815 1588 l 1
 815 986 l 1
 1095 986 l 1
 1095 812 l 1
 815 812 l 1
 815 172 l 1
 1117 172 l 1
 1117 0 l 1
 473 0 l 2
 209 0 124 154 124 507 c 2
 124 1282 l 2
 124 1585 196 1760 478 1760 c 2
EndSplineSet
EndChar

StartChar: Oslash
Encoding: 216 216 80
Width: 900
VWidth: 0
Flags: HW
LayerCount: 2
UndoRedoHistory
Layer: 1
Undoes
EndUndoes
Redoes
EndRedoes
EndUndoRedoHistory
Fore
SplineSet
75 -166 m 1
 803 1906 l 1
 910 1870 l 1
 174 -206 l 1
 75 -166 l 1
EndSplineSet
Refer: 71 79 N 1 0 0 1 0 0 2
EndChar

StartChar: P
Encoding: 80 80 82
Width: 890
VWidth: 0
Flags: HW
LayerCount: 2
UndoRedoHistory
Layer: 1
Undoes
EndUndoes
Redoes
EndRedoes
EndUndoRedoHistory
Fore
SplineSet
623 1263 m 2
 623 1489 600 1596 482 1596 c 2
 351 1596 l 1
 351 863 l 1
 477 863 l 2
 598 863 623 955 623 1229 c 2
 623 1263 l 2
144 1760 m 1
 498 1760 l 2
 779 1760 827 1566 829 1256 c 0
 830 1253 830 1232 830 1229 c 0
 830 874 763 691 498 691 c 2
 351 691 l 1
 351 0 l 1
 144 0 l 1
 144 1760 l 1
EndSplineSet
EndChar

StartChar: Q
Encoding: 81 81 83
Width: 944
VWidth: 0
Flags: HW
LayerCount: 2
UndoRedoHistory
Layer: 1
Undoes
EndUndoes
Redoes
EndRedoes
EndUndoRedoHistory
Fore
SplineSet
430 -11 m 5
 569 56 l 5
 769 -176 l 5
 667 -269 l 5
 430 -11 l 5
EndSplineSet
Refer: 71 79 N 1 0 0 1 0 0 2
EndChar

StartChar: R
Encoding: 82 82 84
Width: 953
VWidth: 0
Flags: HW
LayerCount: 2
UndoRedoHistory
Layer: 1
Undoes
EndUndoes
Redoes
EndRedoes
EndUndoRedoHistory
Fore
SplineSet
623 1329 m 2
 623 1553 602 1596 481 1596 c 2
 351 1596 l 1
 351 1002 l 1
 483 1002 l 2
 597 1002 623 1046 623 1317 c 2
 623 1329 l 2
144 1760 m 1
 513 1760 l 2
 792 1760 828 1612 828 1311 c 0
 828 1094 793 965 667 928 c 1
 796 906 829 775 829 301 c 0
 829 243 829 42 845 0 c 1
 639 0 l 1
 624 30 623 247 623 593 c 0
 623 793 611 842 474 843 c 1
 351 850 l 1
 351 0 l 1
 144 0 l 1
 144 1760 l 1
EndSplineSet
EndChar

StartChar: S
Encoding: 83 83 88
Width: 872
VWidth: 0
Flags: HW
PickledData: "(dp1
S'com.typemytype.robofont.layerData'
p2
(dp3
s."
LayerCount: 2
UndoRedoHistory
Layer: 1
Undoes
EndUndoes
Redoes
EndRedoes
EndUndoRedoHistory
Fore
SplineSet
106 1349 m 0
 106 1614 173 1782 446 1782 c 0
 732 1782 768 1573 768 1269 c 2
 768 1165 l 1
 570 1165 l 1
 570 1283 l 2
 570 1496 555 1605 446 1605 c 0
 345 1605 305 1534 305 1374 c 0
 305 1233 357 1187 458 1082 c 1
 578 955 l 2
 704 823 794 665 794 449 c 0
 794 157 726 -20 455 -20 c 0
 169 -20 115 198 115 509 c 2
 115 680 l 1
 316 680 l 1
 316 501 l 2
 316 254 340 157 457 157 c 0
 579 157 591 237 591 443 c 0
 591 600 534 705 430 809 c 2
 315 924 l 2
 215 1025 106 1151 106 1349 c 0
EndSplineSet
EndChar

StartChar: T
Encoding: 84 84 94
Width: 637
VWidth: 0
Flags: HW
PickledData: "(dp1
S'com.typemytype.robofont.layerData'
p2
(dp3
s."
LayerCount: 2
UndoRedoHistory
Layer: 1
Undoes
EndUndoes
Redoes
EndRedoes
EndUndoRedoHistory
Fore
SplineSet
28 1760 m 1
 609 1760 l 1
 609 1588 l 1
 428 1588 l 1
 428 0 l 1
 222 0 l 1
 222 1588 l 1
 28 1588 l 1
 28 1760 l 1
EndSplineSet
EndChar

StartChar: Thorn
Encoding: 222 222 96
Width: 927
VWidth: 0
Flags: HW
LayerCount: 2
UndoRedoHistory
Layer: 1
Undoes
EndUndoes
Redoes
EndRedoes
EndUndoRedoHistory
Fore
SplineSet
641 994 m 2
 641 1222 619 1335 499 1335 c 2
 368 1335 l 1
 368 594 l 1
 495 594 l 2
 616 594 641 689 641 964 c 2
 641 994 l 2
162 1760 m 1
 368 1760 l 1
 368 1499 l 1
 515 1499 l 2
 798 1499 846 1300 847 987 c 1
 847 963 l 2
 847 609 780 422 515 422 c 2
 368 422 l 1
 368 0 l 1
 162 0 l 1
 162 1760 l 1
EndSplineSet
EndChar

StartChar: U
Encoding: 85 85 97
Width: 963
VWidth: 0
Flags: HW
LayerCount: 2
UndoRedoHistory
Layer: 1
Undoes
EndUndoes
Redoes
EndRedoes
EndUndoRedoHistory
Fore
SplineSet
623 1760 m 1
 829 1760 l 1
 829 452 l 2
 829 132 744 -21 483 -21 c 0
 222 -21 134 132 134 452 c 2
 134 1760 l 1
 341 1760 l 1
 341 457 l 2
 341 267 347 154 483 154 c 0
 620 154 623 266 623 456 c 2
 623 1760 l 1
EndSplineSet
EndChar

StartChar: V
Encoding: 86 86 108
Width: 921
VWidth: 0
Flags: HW
LayerCount: 2
UndoRedoHistory
Layer: 1
Undoes
EndUndoes
Redoes
EndRedoes
EndUndoRedoHistory
Fore
SplineSet
666 1760 m 1
 861 1760 l 1
 594 0 l 1
 353 0 l 1
 60 1760 l 1
 257 1760 l 1
 374 1015 l 1
 474 360 l 1
 478 360 l 1
 565 1015 l 1
 666 1760 l 1
EndSplineSet
EndChar

StartChar: W
Encoding: 87 87 109
Width: 1359
VWidth: 0
Flags: HW
LayerCount: 2
UndoRedoHistory
Layer: 1
Undoes
EndUndoes
Redoes
EndRedoes
EndUndoRedoHistory
Fore
SplineSet
1106 1760 m 1
 1296 1760 l 1
 1088 0 l 1
 883 0 l 1
 695 1299 l 1
 496 0 l 1
 296 0 l 1
 64 1760 l 1
 255 1760 l 1
 405 411 l 1
 605 1760 l 1
 774 1760 l 1
 979 411 l 1
 1106 1760 l 1
EndSplineSet
EndChar

StartChar: X
Encoding: 88 88 114
Width: 814
VWidth: 0
Flags: HW
LayerCount: 2
UndoRedoHistory
Layer: 1
Undoes
EndUndoes
Redoes
EndRedoes
EndUndoRedoHistory
Fore
SplineSet
567 1760 m 1
 753 1760 l 1
 509 857 l 1
 761 0 l 1
 581 0 l 1
 402 608 l 1
 244 0 l 1
 55 0 l 1
 307 932 l 1
 63 1760 l 1
 244 1760 l 1
 416 1174 l 1
 567 1760 l 1
EndSplineSet
EndChar

StartChar: Y
Encoding: 89 89 115
Width: 836
VWidth: 0
Flags: HW
LayerCount: 2
UndoRedoHistory
Layer: 1
Undoes
EndUndoes
Redoes
EndRedoes
EndUndoRedoHistory
Fore
SplineSet
614 1760 m 1
 817 1760 l 1
 533 739 l 1
 533 0 l 1
 326 0 l 1
 326 739 l 1
 20 1760 l 1
 221 1760 l 1
 429 1040 l 1
 433 1040 l 1
 614 1760 l 1
EndSplineSet
EndChar

StartChar: Z
Encoding: 90 90 120
Width: 764
VWidth: 0
Flags: HW
LayerCount: 2
UndoRedoHistory
Layer: 1
Undoes
EndUndoes
Redoes
EndRedoes
EndUndoRedoHistory
Fore
SplineSet
148 1760 m 1
 692 1760 l 1
 692 1602 l 1
 329 172 l 1
 684 172 l 1
 684 0 l 1
 115 0 l 1
 115 179 l 1
 478 1588 l 1
 148 1588 l 1
 148 1760 l 1
EndSplineSet
EndChar

StartChar: a
Encoding: 97 97 124
Width: 926
VWidth: 0
Flags: HW
LayerCount: 2
UndoRedoHistory
Layer: 1
Undoes
EndUndoes
Redoes
EndRedoes
EndUndoRedoHistory
Fore
SplineSet
145 1066 m 2
 145 1322 189 1518 475 1518 c 0
 746 1518 793 1343 793 1021 c 2
 793 0 l 1
 587 0 l 1
 587 130 l 1
 569 69 500 -13 383 -13 c 0
 201 -13 127 136 126 385 c 1
 126 531 l 2
 126 796 320 853 586 960 c 1
 586 1076 l 2
 586 1267 579 1347 471 1347 c 0
 364 1347 349 1267 349 1075 c 2
 349 1023 l 1
 145 1023 l 1
 145 1066 l 2
586 827 m 1
 380 735 333 701 333 530 c 2
 333 391 l 2
 333 221 356 153 441 153 c 0
 513 153 569 211 586 256 c 1
 586 827 l 1
EndSplineSet
EndChar

StartChar: acute
Encoding: 180 180 128
Width: 650
VWidth: 0
Flags: HW
LayerCount: 2
UndoRedoHistory
Layer: 1
Undoes
EndUndoes
Redoes
EndRedoes
EndUndoRedoHistory
Fore
SplineSet
100 1955 m 1
 519 2129 l 1
 519 1930 l 1
 100 1844 l 1
 100 1955 l 1
EndSplineSet
EndChar

StartChar: ae
Encoding: 230 230 130
Width: 1356
VWidth: 0
Flags: HW
LayerCount: 2
UndoRedoHistory
Layer: 1
Undoes
EndUndoes
Redoes
EndRedoes
EndUndoRedoHistory
Fore
SplineSet
1036 1073 m 2
 1036 1252 1030 1349 924 1349 c 0
 805 1349 792 1233 792 1060 c 2
 792 889 l 1
 1036 889 l 1
 1036 1073 l 2
585 257 m 1
 585 822 l 1
 378 729 333 698 333 527 c 2
 333 391 l 2
 333 221 356 153 441 153 c 0
 513 153 569 212 585 257 c 1
691 1418 m 1
 739 1483 814 1518 925 1518 c 0
 1200 1518 1241 1315 1241 1026 c 1
 1241 1026 1241 750 1240 740 c 1
 792 740 l 1
 792 457 l 2
 792 252 807 153 919 153 c 0
 1032 153 1036 276 1036 451 c 2
 1036 562 l 1
 1238 562 l 1
 1238 502 l 2
 1238 193 1214 -18 925 -18 c 0
 794 -18 713 32 670 115 c 1
 624 56 512 -13 404 -13 c 0
 217 -13 126 135 126 390 c 2
 126 537 l 1
 128 797 319 854 586 962 c 1
 586 1063 l 1
 585 1252 579 1347 470 1347 c 0
 365 1347 349 1270 349 1077 c 2
 349 1023 l 1
 145 1023 l 1
 145 1066 l 2
 145 1322 189 1518 475 1518 c 0
 589 1518 654 1484 691 1418 c 1
EndSplineSet
EndChar

StartChar: ampersand
Encoding: 38 38 133
Width: 981
VWidth: 0
Flags: HW
LayerCount: 2
UndoRedoHistory
Layer: 1
Undoes
EndUndoes
Redoes
EndRedoes
EndUndoRedoHistory
Fore
SplineSet
191 1437 m 0
 191 1664 303 1782 495 1782 c 0
 716 1782 788 1655 788 1434 c 0
 788 1240 672 1079 549 924 c 1
 598 804 654 677 709 554 c 1
 757 644 816 741 894 834 c 1
 982 690 l 1
 898 590 844 474 794 365 c 1
 861 217 921 87 959 0 c 1
 775 0 l 1
 759 40 731 100 697 173 c 1
 627 60 538 -20 379 -20 c 0
 193 -20 66 108 66 365 c 0
 66 606 206 779 346 940 c 1
 257 1152 191 1342 191 1437 c 0
480 1098 m 1
 564 1205 627 1315 627 1445 c 0
 627 1572 608 1633 510 1633 c 0
 384 1633 385 1515 385 1441 c 0
 385 1375 423 1249 480 1098 c 1
610 357 m 1
 551 482 485 623 423 763 c 1
 335 645 263 524 255 388 c 0
 247 247 290 155 409 155 c 0
 496 155 549 237 610 357 c 1
EndSplineSet
EndChar

StartChar: approxequal
Encoding: 8776 8776 135
Width: 1117
VWidth: 0
Flags: HW
LayerCount: 2
UndoRedoHistory
Layer: 1
Undoes
EndUndoes
Redoes
EndRedoes
EndUndoRedoHistory
Fore
SplineSet
743 616 m 1
 777 620 814 655 837 731 c 1
 1001 689 l 1
 967 553 881 402 772 402 c 0
 658 402 469 494 363 494 c 0
 325 494 295 464 268 401 c 1
 119 479 l 1
 170 624 247 704 349 704 c 0
 453 704 679 616 743 616 c 1
743 1062 m 1
 777 1066 814 1101 837 1177 c 1
 1001 1135 l 1
 967 999 881 848 772 848 c 0
 658 848 469 940 363 940 c 0
 325 940 295 910 268 847 c 1
 119 925 l 1
 170 1071 247 1150 349 1150 c 0
 453 1150 679 1062 743 1062 c 1
EndSplineSet
EndChar

StartChar: asciicircum
Encoding: 94 94 137
Width: 1030
VWidth: 0
Flags: HW
LayerCount: 2
UndoRedoHistory
Layer: 1
Undoes
EndUndoes
Redoes
EndRedoes
EndUndoRedoHistory
Fore
SplineSet
384 1500 m 1
 645 1500 l 1
 886 577 l 1
 685 577 l 1
 515 1340 l 1
 345 577 l 1
 143 577 l 1
 384 1500 l 1
EndSplineSet
EndChar

StartChar: asciitilde
Encoding: 126 126 138
Width: 1117
VWidth: 0
Flags: HW
LayerCount: 2
UndoRedoHistory
Layer: 1
Undoes
EndUndoes
Redoes
EndRedoes
EndUndoRedoHistory
Fore
SplineSet
735 1046 m 1
 769 1050 806 1085 829 1161 c 1
 993 1119 l 1
 959 983 873 832 764 832 c 0
 650 832 461 924 355 924 c 0
 315 924 287 893 260 831 c 1
 111 909 l 1
 162 1055 239 1134 341 1134 c 0
 445 1134 671 1046 735 1046 c 1
EndSplineSet
EndChar

StartChar: asterisk
Encoding: 42 42 139
Width: 960
VWidth: 0
Flags: HW
LayerCount: 2
UndoRedoHistory
Layer: 1
Undoes
EndUndoes
Redoes
EndRedoes
EndUndoRedoHistory
Fore
SplineSet
400 1727 m 1
 560 1727 l 1
 536 1454 l 1
 762 1626 l 1
 843 1487 l 1
 586 1361 l 1
 843 1228 l 1
 762 1088 l 1
 536 1266 l 1
 560 988 l 1
 400 988 l 1
 430 1271 l 1
 203 1095 l 1
 123 1235 l 1
 373 1361 l 1
 117 1480 l 1
 198 1619 l 1
 429 1451 l 1
 400 1727 l 1
EndSplineSet
EndChar

StartChar: at
Encoding: 64 64 140
Width: 1406
VWidth: 0
Flags: HW
LayerCount: 2
UndoRedoHistory
Layer: 1
Undoes
EndUndoes
Redoes
EndRedoes
EndUndoRedoHistory
Fore
SplineSet
867 759 m 2
 867 1062 l 1
 656 1205 548 1133 548 810 c 0
 548 584 608 509 706 509 c 0
 795 509 867 609 867 759 c 2
94 836 m 0
 94 1400 281 1781 764 1781 c 0
 1151 1781 1316 1440 1316 910 c 0
 1316 604 1245 378 1070 378 c 0
 989 378 917 477 894 591 c 1
 870 452 790 361 692 361 c 0
 548 361 409 477 409 804 c 0
 409 1093 501 1283 669 1283 c 0
 772 1283 840 1209 875 1148 c 1
 905 1270 l 1
 1005 1270 l 1
 1005 713 l 2
 1005 587 1022 518 1077 518 c 0
 1148 518 1173 634 1173 942 c 0
 1173 1286 1117 1636 751 1636 c 0
 385 1636 254 1315 254 833 c 0
 254 291 401 84 694 84 c 0
 749 84 819 91 889 112 c 1
 911 -27 l 1
 818 -46 760 -56 690 -56 c 0
 304 -56 94 237 94 836 c 0
EndSplineSet
EndChar

StartChar: b
Encoding: 98 98 142
Width: 937
VWidth: 0
Flags: HW
LayerCount: 2
UndoRedoHistory
Layer: 1
Undoes
EndUndoes
Redoes
EndRedoes
EndUndoRedoHistory
Fore
SplineSet
608 1067 m 2
 608 1234 597 1346 492 1346 c 0
 402 1346 352 1304 352 1066 c 2
 352 458 l 2
 352 255 374 154 488 154 c 1
 588 155 608 250 608 463 c 2
 608 1067 l 2
147 1779 m 1
 352 1779 l 1
 352 1381 l 1
 374 1462 459 1516 532 1518 c 0
 764 1525 814 1314 814 1040 c 2
 814 463 l 2
 814 192 768 -13 556 -13 c 0
 474 -13 394 25 352 126 c 1
 352 0 l 1
 147 0 l 1
 147 1779 l 1
EndSplineSet
EndChar

StartChar: backslash
Encoding: 92 92 143
Width: 868
VWidth: 0
Flags: HW
LayerCount: 2
UndoRedoHistory
Layer: 1
Undoes
EndUndoes
Redoes
EndRedoes
EndUndoRedoHistory
Fore
SplineSet
115 1761 m 1
 297 1761 l 1
 707 0 l 1
 526 0 l 1
 115 1761 l 1
EndSplineSet
EndChar

StartChar: bar
Encoding: 124 124 144
Width: 537
VWidth: 0
Flags: HW
LayerCount: 2
UndoRedoHistory
Layer: 1
Undoes
EndUndoes
Redoes
EndRedoes
EndUndoRedoHistory
Fore
SplineSet
175 1877 m 5
 372 1877 l 5
 372 -84 l 1
 175 -84 l 1
 175 1877 l 5
EndSplineSet
EndChar

StartChar: braceleft
Encoding: 123 123 145
Width: 798
VWidth: 0
Flags: HW
LayerCount: 2
UndoRedoHistory
Layer: 1
Undoes
EndUndoes
Redoes
EndRedoes
EndUndoRedoHistory
Fore
SplineSet
587 1781 m 2
 647 1781 l 1
 647 1614 l 1
 525 1614 508 1589 508 1430 c 2
 508 1184 l 2
 508 921 486 873 342 830 c 1
 486 787 508 739 508 476 c 2
 508 230 l 2
 508 71 525 46 647 46 c 1
 647 -121 l 1
 587 -121 l 2
 375 -121 304 -44 304 217 c 2
 304 492 l 2
 304 684 291 720 165 720 c 1
 165 940 l 1
 291 940 304 976 304 1168 c 2
 304 1443 l 2
 304 1704 375 1781 587 1781 c 2
EndSplineSet
EndChar

StartChar: braceright
Encoding: 125 125 146
Width: 798
VWidth: 0
Flags: HW
LayerCount: 2
UndoRedoHistory
Layer: 1
Undoes
EndUndoes
Redoes
EndRedoes
EndUndoRedoHistory
Fore
SplineSet
165 1781 m 1
 225 1781 l 2
 437 1781 508 1704 508 1443 c 2
 508 1168 l 2
 508 976 521 940 647 940 c 1
 647 720 l 1
 521 720 508 684 508 492 c 2
 508 217 l 2
 508 -44 437 -121 225 -121 c 2
 165 -121 l 1
 165 46 l 1
 287 46 304 71 304 230 c 2
 304 476 l 2
 304 739 326 787 470 830 c 1
 326 873 304 921 304 1184 c 2
 304 1430 l 2
 304 1589 287 1614 165 1614 c 1
 165 1781 l 1
EndSplineSet
EndChar

StartChar: bracketleft
Encoding: 91 91 147
Width: 764
VWidth: 0
Flags: HW
LayerCount: 2
UndoRedoHistory
Layer: 1
Undoes
EndUndoes
Redoes
EndRedoes
EndUndoRedoHistory
Fore
SplineSet
217 1761 m 1
 632 1761 l 1
 632 1601 l 1
 423 1601 l 1
 423 160 l 1
 632 160 l 1
 632 0 l 1
 217 0 l 1
 217 1761 l 1
EndSplineSet
EndChar

StartChar: bracketright
Encoding: 93 93 148
Width: 764
VWidth: 0
Flags: HW
LayerCount: 2
UndoRedoHistory
Layer: 1
Undoes
EndUndoes
Redoes
EndRedoes
EndUndoRedoHistory
Fore
SplineSet
166 1761 m 1
 581 1761 l 1
 581 0 l 1
 166 0 l 1
 166 160 l 1
 376 160 l 1
 376 1601 l 1
 166 1601 l 1
 166 1761 l 1
EndSplineSet
EndChar

StartChar: breve
Encoding: 728 728 149
Width: 1016
VWidth: 0
Flags: HW
LayerCount: 2
UndoRedoHistory
Layer: 1
Undoes
EndUndoes
Redoes
EndRedoes
EndUndoRedoHistory
Fore
SplineSet
635 1856 m 1
 741 1856 l 1
 741 1843 l 2
 741 1700 665 1617 505 1617 c 0
 351 1617 271 1698 271 1841 c 2
 271 1856 l 1
 377 1856 l 1
 377 1756 440 1735 507 1735 c 0
 572 1735 635 1753 635 1856 c 1
EndSplineSet
EndChar

StartChar: brokenbar
Encoding: 166 166 150
Width: 530
VWidth: 0
Flags: HW
LayerCount: 2
UndoRedoHistory
Layer: 1
Undoes
EndUndoes
Redoes
EndRedoes
EndUndoRedoHistory
Fore
SplineSet
122 690 m 1
 319 690 l 1
 319 -118 l 1
 122 -118 l 1
 122 690 l 1
122 1727 m 1
 319 1727 l 1
 319 897 l 1
 122 897 l 1
 122 1727 l 1
EndSplineSet
EndChar

StartChar: bullet
Encoding: 8226 8226 151
Width: 861
VWidth: 0
Flags: HW
LayerCount: 2
UndoRedoHistory
Layer: 1
Undoes
EndUndoes
Redoes
EndRedoes
EndUndoRedoHistory
Fore
SplineSet
197 741 m 0
 197 906 278 999 430 999 c 0
 583 999 664 906 664 741 c 0
 664 576 583 483 430 483 c 0
 278 483 197 576 197 741 c 0
EndSplineSet
EndChar

StartChar: c
Encoding: 99 99 152
Width: 880
VWidth: 0
Flags: HW
LayerCount: 2
UndoRedoHistory
Layer: 1
Undoes
EndUndoes
Redoes
EndRedoes
EndUndoRedoHistory
Fore
SplineSet
124 1008 m 2
 124 1308 176 1518 464 1518 c 0
 730 1518 775 1332 775 1051 c 2
 775 947 l 1
 573 947 l 1
 573 1079 l 2
 573 1250 570 1342 462 1342 c 0
 348 1342 330 1239 330 1073 c 2
 330 435 l 2
 330 249 343 158 456 158 c 0
 564 158 573 260 573 431 c 2
 573 576 l 1
 775 576 l 1
 775 479 l 2
 775 184 734 -18 459 -18 c 0
 169 -18 124 190 124 506 c 2
 124 1008 l 2
EndSplineSet
EndChar

StartChar: caron
Encoding: 711 711 154
Width: 970
VWidth: 0
Flags: HW
LayerCount: 2
UndoRedoHistory
Layer: 1
Undoes
EndUndoes
Redoes
EndRedoes
EndUndoRedoHistory
Fore
SplineSet
571 1886 m 1
 754 1886 l 1
 601 1592 l 1
 369 1592 l 1
 215 1886 l 1
 399 1886 l 1
 485 1681 l 1
 571 1886 l 1
EndSplineSet
EndChar

StartChar: cedilla
Encoding: 184 184 159
Width: 1015
VWidth: 0
Flags: HW
LayerCount: 2
UndoRedoHistory
Layer: 1
Undoes
EndUndoes
Redoes
EndRedoes
EndUndoRedoHistory
Fore
SplineSet
462 0 m 1
 531 0 l 1
 543 -144 l 1
 682 -202 746 -294 746 -385 c 0
 746 -507 637 -617 468 -617 c 0
 430 -617 391 -611 351 -599 c 1
 351 -501 l 1
 540 -501 582 -434 582 -359 c 0
 582 -269 504 -214 422 -196 c 1
 462 0 l 1
EndSplineSet
EndChar

StartChar: cent
Encoding: 162 162 160
Width: 788
VWidth: 0
Flags: HW
LayerCount: 2
UndoRedoHistory
Layer: 1
Undoes
EndUndoes
Redoes
EndRedoes
EndUndoRedoHistory
Fore
SplineSet
402 5 m 5
 515 5 l 5
 515 -250 l 5
 402 -250 l 5
 402 5 l 5
402 1767 m 1
 515 1767 l 1
 515 1510 l 1
 402 1512 l 1
 402 1767 l 1
EndSplineSet
Refer: 152 99 N 1 0 0 1 0 0 2
EndChar

StartChar: circumflex
Encoding: 710 710 161
Width: 970
VWidth: 0
Flags: HW
LayerCount: 2
UndoRedoHistory
Layer: 1
Undoes
EndUndoes
Redoes
EndRedoes
EndUndoRedoHistory
Fore
SplineSet
369 1886 m 1
 601 1886 l 1
 754 1592 l 1
 571 1592 l 1
 485 1797 l 1
 399 1592 l 1
 215 1592 l 1
 369 1886 l 1
EndSplineSet
EndChar

StartChar: colon
Encoding: 58 58 162
Width: 555
VWidth: 0
Flags: HW
LayerCount: 2
UndoRedoHistory
Layer: 1
Undoes
EndUndoes
Redoes
EndRedoes
EndUndoRedoHistory
Fore
SplineSet
152 520 m 1
 403 520 l 1
 403 270 l 1
 152 270 l 1
 152 520 l 1
152 1307 m 1
 403 1307 l 1
 403 1057 l 1
 152 1057 l 1
 152 1307 l 1
EndSplineSet
EndChar

StartChar: comma
Encoding: 44 44 163
Width: 462
VWidth: 0
Flags: HW
LayerCount: 2
UndoRedoHistory
Layer: 1
Undoes
EndUndoes
Redoes
EndRedoes
EndUndoRedoHistory
Fore
SplineSet
119 235 m 1
 377 235 l 1
 377 9 l 1
 276 -344 l 1
 170 -344 l 1
 243 0 l 1
 119 0 l 1
 119 235 l 1
EndSplineSet
EndChar

StartChar: commaaccentcomb
Encoding: 806 806 164
Width: 528
VWidth: 0
Flags: HW
LayerCount: 2
UndoRedoHistory
Layer: 1
Undoes
EndUndoes
Redoes
EndRedoes
EndUndoRedoHistory
Fore
SplineSet
145 128 m 1
 379 128 l 1
 379 -90 l 1
 294 -387 l 1
 204 -387 l 1
 253 -99 l 1
 145 -99 l 1
 145 128 l 1
EndSplineSet
EndChar

StartChar: copyright
Encoding: 169 169 165
Width: 1466
VWidth: 0
Flags: HW
LayerCount: 2
UndoRedoHistory
Layer: 1
Undoes
EndUndoes
Redoes
EndRedoes
EndUndoRedoHistory
Fore
SplineSet
741 1390 m 4
 397.275390625 1390 224.943359375 1125.52050781 224.943359375 861.282226562 c 4
 224.943359375 597.521484375 396.651367188 334 741 334 c 4
 1084.72460938 334 1257.05664062 598.479492188 1257.05664062 862.717773438 c 4
 1257.05664062 1126.47851562 1085.34863281 1390 741 1390 c 4
84 862 m 4
 84 1235 368 1519 741 1519 c 4
 1114 1519 1398 1235 1398 862 c 4
 1398 489 1114 205 741 205 c 4
 368 205 84 489 84 862 c 4
527 1089 m 2
 527 1217 571 1305 736 1305 c 0
 870 1305 940 1259 940 1095 c 2
 940 977 l 1
 815 977 l 1
 815 1084 l 2
 815 1182.31542969 779.881835938 1188.65625 737.57421875 1188.65625 c 0
 694.883789062 1188.65625 652 1181.49023438 652 1097 c 2
 652 616 l 2
 652 547.18359375 695.419921875 535.614257812 738.372070312 535.614257812 c 0
 780.41015625 535.614257812 815 545.684570312 815 616 c 2
 815 765 l 1
 944 765 l 1
 944 623 l 2
 944 497 894 424 732 424 c 0
 593 424 527 507 527 628 c 2
 527 1089 l 2
EndSplineSet
EndChar

StartChar: currency
Encoding: 164 164 166
Width: 1159
VWidth: 0
Flags: HW
LayerCount: 2
UndoRedoHistory
Layer: 1
Undoes
EndUndoes
Redoes
EndRedoes
EndUndoRedoHistory
Fore
SplineSet
823 966 m 0
 823 1114 730 1224 579 1224 c 0
 432 1224 336 1108 336 964 c 0
 336 819 431 703 579 703 c 0
 727 703 823 822 823 966 c 0
797 1331 m 1
 884 1418 l 1
 1034 1269 l 1
 944 1179 l 1
 980 1114 998 1043 998 964 c 0
 998 885 980 813 944 748 c 1
 1034 658 l 1
 884 509 l 1
 795 597 l 1
 733 562 661 545 579 545 c 0
 496 545 424 563 363 598 c 1
 274 509 l 1
 125 659 l 1
 216 750 l 1
 181 815 163 887 163 964 c 0
 163 1042 180 1113 215 1178 c 1
 125 1268 l 1
 274 1418 l 1
 361 1330 l 1
 426 1367 498 1385 579 1385 c 0
 659 1385 732 1367 797 1331 c 1
EndSplineSet
EndChar

StartChar: d
Encoding: 100 100 167
Width: 938
VWidth: 0
Flags: HW
LayerCount: 2
UndoRedoHistory
Layer: 1
Undoes
EndUndoes
Redoes
EndRedoes
EndUndoRedoHistory
Fore
SplineSet
587 1050 m 2
 587 1245 566 1346 455 1346 c 1
 355 1345 330 1251 330 1045 c 2
 330 439 l 2
 330 265 347 154 450 154 c 0
 544 154 587 209 587 448 c 2
 587 1050 l 2
586 1779 m 1
 792 1779 l 1
 792 0 l 1
 586 0 l 1
 586 126 l 1
 546 27 468 -13 379 -13 c 0
 157 -13 124 200 124 480 c 2
 124 1047 l 2
 124 1314 185 1518 410 1518 c 0
 488 1518 554 1466 586 1400 c 1
 586 1779 l 1
EndSplineSet
EndChar

StartChar: dagger
Encoding: 8224 8224 168
Width: 909
VWidth: 0
Flags: HW
LayerCount: 2
UndoRedoHistory
Layer: 1
Undoes
EndUndoes
Redoes
EndRedoes
EndUndoRedoHistory
Fore
SplineSet
352 1592 m 1
 560 1592 l 1
 560 1182 l 1
 818 1182 l 1
 818 1017 l 1
 560 1017 l 1
 560 0 l 1
 352 0 l 1
 352 1017 l 1
 91 1017 l 1
 91 1182 l 1
 352 1182 l 1
 352 1592 l 1
EndSplineSet
EndChar

StartChar: daggerdbl
Encoding: 8225 8225 169
Width: 927
VWidth: 0
Flags: HW
LayerCount: 2
UndoRedoHistory
Layer: 1
Undoes
EndUndoes
Redoes
EndRedoes
EndUndoRedoHistory
Fore
SplineSet
352 1592 m 1
 560 1592 l 1
 560 1182 l 1
 818 1182 l 1
 818 1017 l 1
 560 1017 l 1
 560 668 l 1
 818 668 l 1
 818 503 l 1
 560 503 l 1
 560 0 l 1
 352 0 l 1
 352 503 l 1
 91 503 l 1
 91 668 l 1
 352 668 l 1
 352 1017 l 1
 91 1017 l 1
 91 1182 l 1
 352 1182 l 1
 352 1592 l 1
EndSplineSet
EndChar

StartChar: dblgravecmb
Encoding: 783 783 170
Width: 825
VWidth: 0
Flags: HW
LayerCount: 2
UndoRedoHistory
Layer: 1
Undoes
EndUndoes
Redoes
EndRedoes
EndUndoRedoHistory
Fore
SplineSet
339 1957 m 1
 497 2057 l 1
 657 1690 l 1
 563 1640 l 1
 339 1957 l 1
6 1957 m 1
 168 2057 l 1
 365 1690 l 1
 271 1640 l 1
 6 1957 l 1
EndSplineSet
EndChar

StartChar: degree
Encoding: 176 176 173
Width: 915
VWidth: 0
Flags: HW
LayerCount: 2
UndoRedoHistory
Layer: 1
Undoes
EndUndoes
Redoes
EndRedoes
EndUndoRedoHistory
Fore
SplineSet
657 1269 m 0
 657 1552.48192103 259 1553.91372163 259 1269 c 0
 259 985.518078974 657 984.086278375 657 1269 c 0
104 1269 m 0
 104 1714.37717011 811 1714.33885661 811 1269 c 4
 811 824.97632179 104 821.938786753 104 1269 c 0
EndSplineSet
EndChar

StartChar: dieresis
Encoding: 168 168 174
Width: 976
VWidth: 0
Flags: HW
LayerCount: 2
UndoRedoHistory
Layer: 1
Undoes
EndUndoes
Redoes
EndRedoes
EndUndoRedoHistory
Fore
SplineSet
131 596 m 1
 361 596 l 1
 361 418 l 1
 131 418 l 1
 131 596 l 1
615 596 m 1
 845 596 l 1
 845 418 l 1
 615 418 l 1
 615 596 l 1
EndSplineSet
EndChar

StartChar: divide
Encoding: 247 247 175
Width: 804
VWidth: 0
Flags: HW
LayerCount: 2
UndoRedoHistory
Layer: 1
Undoes
EndUndoes
Redoes
EndRedoes
EndUndoRedoHistory
Fore
SplineSet
253 1274 m 1
 551 1274 l 1
 551 976 l 1
 253 976 l 1
 253 1274 l 1
253 535 m 1
 551 535 l 1
 551 237 l 1
 253 237 l 1
 253 535 l 1
94 870 m 1
 710 870 l 1
 710 638 l 1
 94 638 l 1
 94 870 l 1
EndSplineSet
EndChar

StartChar: dollar
Encoding: 36 36 176
Width: 881
VWidth: 0
Flags: HW
LayerCount: 2
UndoRedoHistory
Layer: 1
Undoes
EndUndoes
Redoes
EndRedoes
EndUndoRedoHistory
Fore
SplineSet
356 1760 m 5
 481 1760 l 5
 481 1485 l 5
 356 1485 l 5
 356 1760 l 5
371 34 m 5
 496 34 l 5
 496 -246 l 5
 371 -246 l 5
 371 34 l 5
EndSplineSet
Refer: 307 115 N 1 0 0 1 0 10 2
EndChar

StartChar: dotaccent
Encoding: 729 729 177
Width: 572
VWidth: 0
Flags: HW
LayerCount: 2
UndoRedoHistory
Layer: 1
Undoes
EndUndoes
Redoes
EndRedoes
EndUndoRedoHistory
Fore
SplineSet
184 583 m 1
 397 583 l 1
 397 405 l 1
 184 405 l 1
 184 583 l 1
EndSplineSet
EndChar

StartChar: dotlessi
Encoding: 305 305 178
Width: 504
VWidth: 0
Flags: HW
LayerCount: 2
UndoRedoHistory
Layer: 1
Undoes
EndUndoes
Redoes
EndRedoes
EndUndoRedoHistory
Fore
SplineSet
149 1500 m 1
 355 1500 l 1
 355 0 l 1
 149 0 l 1
 149 1500 l 1
EndSplineSet
EndChar

StartChar: e
Encoding: 101 101 179
Width: 893
VWidth: 0
Flags: HW
LayerCount: 2
UndoRedoHistory
Layer: 1
Undoes
EndUndoes
Redoes
EndRedoes
EndUndoRedoHistory
Fore
SplineSet
573 1073 m 2
 573 1252 567 1349 462 1349 c 0
 343 1349 329 1233 329 1066 c 2
 329 882 l 1
 573 882 l 1
 573 1073 l 2
124 1035 m 2
 124 1317 190 1518 462 1518 c 0
 737 1518 778 1315 778 1026 c 2
 778 743 l 1
 330 743 l 1
 330 444 l 2
 330 254 340 153 456 153 c 0
 569 153 573 265 573 441 c 2
 573 562 l 1
 774 562 l 1
 774 498 l 2
 774 186 747 -18 454 -18 c 0
 167 -18 124 192 124 505 c 2
 124 1035 l 2
EndSplineSet
EndChar

StartChar: eight
Encoding: 56 56 187
Width: 892
VWidth: 0
Flags: HW
LayerCount: 2
UndoRedoHistory
Layer: 1
Undoes
EndUndoes
Redoes
EndRedoes
EndUndoRedoHistory
Fore
SplineSet
580 1336 m 0
 580 1589 537 1614 450 1614 c 0
 366 1614 322 1577 322 1332 c 0
 322 1067 372 1007 450 1007 c 0
 524 1007 580 1068 580 1336 c 0
583 507 m 2
 583 751 532 863 452 863 c 0
 377 863 310 752 310 504 c 2
 310 435 l 1
 311 228 335 154 452 154 c 0
 568 154 582 227 583 440 c 1
 583 507 l 2
116 1344 m 0
 116 1649 206 1780 452 1780 c 0
 699 1780 786 1651 786 1344 c 0
 786 1155 747 1017 643 946 c 1
 734 879 789 682 789 494 c 2
 789 424 l 1
 784 116 687 -20 451 -20 c 0
 216 -20 110 114 104 417 c 0
 103 429 103 481 103 494 c 0
 103 685 159 878 255 943 c 1
 153 1016 116 1157 116 1344 c 0
EndSplineSet
EndChar

StartChar: emdash
Encoding: 8212 8212 189
Width: 1153
VWidth: 0
Flags: HW
LayerCount: 2
UndoRedoHistory
Layer: 1
Undoes
EndUndoes
Redoes
EndRedoes
EndUndoRedoHistory
Fore
SplineSet
60 741 m 1
 1092 741 l 1
 1092 570 l 1
 60 570 l 1
 60 741 l 1
EndSplineSet
EndChar

StartChar: endash
Encoding: 8211 8211 190
Width: 756
VWidth: 0
Flags: HW
LayerCount: 2
UndoRedoHistory
Layer: 1
Undoes
EndUndoes
Redoes
EndRedoes
EndUndoRedoHistory
Fore
SplineSet
120 741 m 1
 636 741 l 1
 636 509 l 1
 120 509 l 1
 120 741 l 1
EndSplineSet
EndChar

StartChar: equal
Encoding: 61 61 192
Width: 722
VWidth: 0
Flags: HW
LayerCount: 2
UndoRedoHistory
Layer: 1
Undoes
EndUndoes
Redoes
EndRedoes
EndUndoRedoHistory
Fore
SplineSet
84 1050 m 1
 668 1050 l 1
 668 892 l 1
 84 892 l 1
 84 1050 l 1
84 735 m 1
 668 735 l 1
 668 576 l 1
 84 576 l 1
 84 735 l 1
EndSplineSet
EndChar

StartChar: eth
Encoding: 240 240 193
Width: 968
VWidth: 0
Flags: HW
LayerCount: 2
UndoRedoHistory
Layer: 1
Undoes
EndUndoes
Redoes
EndRedoes
EndUndoRedoHistory
Fore
SplineSet
616 854 m 1
 602 882 539 927 454 927 c 0
 338 927 311 836 311 578 c 2
 311 440 l 2
 311 215 344 158 460 158 c 0
 585 158 616 255 616 481 c 2
 616 854 l 1
282 1635 m 1
 349 1780 l 1
 480 1774 600 1724 683 1620 c 1
 883 1735 l 1
 942 1617 l 1
 753 1507 l 1
 795 1420 822 972 822 909 c 2
 822 516 l 2
 822 194 760 -20 461 -20 c 0
 183 -20 104 148 104 462 c 2
 104 571 l 2
 104 947 187 1109 438 1101 c 0
 506 1099 572 1073 612 1025 c 1
 612 1041 598 1351 575 1407 c 1
 358 1281 l 1
 299 1399 l 1
 507 1520 l 1
 442 1595 354 1626 282 1635 c 1
EndSplineSet
EndChar

StartChar: exclam
Encoding: 33 33 194
Width: 528
VWidth: 0
Flags: HW
LayerCount: 2
UndoRedoHistory
Layer: 1
Undoes
EndUndoes
Redoes
EndRedoes
EndUndoRedoHistory
Fore
SplineSet
151 228 m 1
 373 228 l 1
 373 0 l 1
 151 0 l 1
 151 228 l 1
146 1760 m 1
 381 1760 l 1
 306 395 l 1
 222 395 l 1
 146 1760 l 1
EndSplineSet
EndChar

StartChar: f
Encoding: 102 102 196
Width: 623
VWidth: 0
Flags: HW
LayerCount: 2
UndoRedoHistory
Layer: 1
Undoes
EndUndoes
Redoes
EndRedoes
EndUndoRedoHistory
Fore
SplineSet
200 1515 m 2
 200 1688 271 1786 432 1786 c 0
 511 1786 575 1767 581 1765 c 1
 581 1622 l 1
 554 1626 530 1628 510 1628 c 0
 420 1628 405 1588 405 1523 c 2
 405 1442 l 1
 581 1442 l 1
 581 1291 l 1
 405 1291 l 1
 405 0 l 1
 200 0 l 1
 200 1291 l 1
 71 1291 l 1
 71 1442 l 1
 200 1442 l 1
 200 1515 l 2
EndSplineSet
EndChar

StartChar: five
Encoding: 53 53 197
Width: 892
VWidth: 0
Flags: HW
LayerCount: 2
UndoRedoHistory
Layer: 1
Undoes
EndUndoes
Redoes
EndRedoes
EndUndoRedoHistory
Fore
SplineSet
146 1760 m 1
 699 1760 l 1
 699 1574 l 1
 335 1574 l 1
 335 1163 l 1
 357 1206 423 1233 488 1233 c 0
 662 1233 741 1116 741 668 c 0
 741 168 720 -20 435 -20 c 0
 201 -20 128 132 128 316 c 2
 128 510 l 1
 328 510 l 1
 328 315 l 2
 328 223 350 154 435 154 c 0
 511 154 542 210 542 326 c 2
 542 851 l 2
 542 985 520 1058 437 1058 c 0
 370 1058 324 999 324 871 c 1
 146 887 l 1
 146 1760 l 1
EndSplineSet
EndChar

StartChar: florin
Encoding: 402 402 198
Width: 767
VWidth: 0
Flags: HW
LayerCount: 2
UndoRedoHistory
Layer: 1
Undoes
EndUndoes
Redoes
EndRedoes
EndUndoRedoHistory
Fore
SplineSet
286 1539 m 2
 286 1703 351 1785 483 1785 c 0
 536 1785 593 1774 652 1752 c 1
 652 1603 l 1
 612 1615 581 1622 557 1622 c 0
 498 1622 480 1584 480 1503 c 2
 480 1255 l 1
 662 1255 l 1
 662 1102 l 1
 480 1102 l 1
 480 221 l 2
 480 66 415 -15 270 -15 c 0
 220 -15 169 -7 115 8 c 1
 115 157 l 1
 135 156 152 154 167 154 c 0
 272 154 286 187 286 305 c 2
 286 1102 l 1
 107 1102 l 1
 107 1255 l 1
 286 1255 l 1
 286 1539 l 2
EndSplineSet
EndChar

StartChar: four
Encoding: 52 52 199
Width: 892
VWidth: 0
Flags: HW
LayerCount: 2
UndoRedoHistory
Layer: 1
Undoes
EndUndoes
Redoes
EndRedoes
EndUndoRedoHistory
Fore
SplineSet
512 496 m 1
 512 1412 l 1
 266 496 l 1
 512 496 l 1
487 1761 m 1
 700 1761 l 1
 700 496 l 1
 845 496 l 1
 845 332 l 1
 700 332 l 1
 700 -1 l 1
 512 -1 l 1
 512 332 l 1
 96 332 l 1
 96 477 l 1
 487 1761 l 1
EndSplineSet
EndChar

StartChar: fraction
Encoding: 8260 8260 200
Width: 829
VWidth: 0
Flags: HW
LayerCount: 2
UndoRedoHistory
Layer: 1
Undoes
EndUndoes
Redoes
EndRedoes
EndUndoRedoHistory
Fore
SplineSet
531 1768 m 1
 709 1768 l 1
 253 0 l 1
 76 0 l 1
 531 1768 l 1
EndSplineSet
EndChar

StartChar: g
Encoding: 103 103 201
Width: 929
VWidth: 0
Flags: HW
LayerCount: 2
UndoRedoHistory
Layer: 1
Undoes
EndUndoes
Redoes
EndRedoes
EndUndoRedoHistory
Fore
SplineSet
583 1068 m 2
 583 1250 560 1347 456 1347 c 0
 341 1347 328 1233 328 1070 c 2
 328 603 l 2
 328 404 354 303 466 303 c 0
 546 303 583 359 583 605 c 2
 583 1068 l 2
122 1038 m 2
 122 1312 193 1521 405 1518 c 0
 490 1517 555 1477 583 1390 c 1
 583 1500 l 1
 788 1500 l 1
 788 140 l 2
 788 -32 720 -220 446 -229 c 0
 309 -233 198 -196 119 -133 c 1
 193 7 l 1
 252 -33 331 -70 436 -67 c 0
 529 -65 583 7 583 121 c 2
 583 264 l 1
 544 165 474 140 387 140 c 0
 176 140 122 340 122 608 c 2
 122 1038 l 2
EndSplineSet
EndChar

StartChar: germandbls
Encoding: 223 223 206
Width: 981
VWidth: 0
Flags: HW
LayerCount: 2
UndoRedoHistory
Layer: 1
Undoes
EndUndoes
Redoes
EndRedoes
EndUndoRedoHistory
Fore
SplineSet
144 1417 m 2
 144 1660 191 1781 474 1781 c 0
 740 1781 831 1694 831 1417 c 2
 831 1220 l 2
 831 1056 792 986 668 945 c 1
 840 904 891 801 891 553 c 2
 891 476 l 2
 891 177 854 0 554 0 c 2
 450 0 l 1
 450 168 l 1
 653 168 689 199 689 395 c 2
 689 656 l 2
 689 806 636 851 459 851 c 1
 459 1019 l 1
 589 1019 631 1058 631 1170 c 2
 631 1470 l 2
 631 1590 596 1627 484 1627 c 0
 387 1627 348 1590 348 1470 c 2
 348 0 l 1
 144 0 l 1
 144 1417 l 2
EndSplineSet
EndChar

StartChar: grave
Encoding: 96 96 207
Width: 650
VWidth: 0
Flags: HW
LayerCount: 2
UndoRedoHistory
Layer: 1
Undoes
EndUndoes
Redoes
EndRedoes
EndUndoRedoHistory
Fore
SplineSet
121 492 m 1
 121 703 l 1
 492 509 l 1
 492 398 l 1
 121 492 l 1
EndSplineSet
EndChar

StartChar: greater
Encoding: 62 62 208
Width: 730
VWidth: 0
Flags: HW
LayerCount: 2
UndoRedoHistory
Layer: 1
Undoes
EndUndoes
Redoes
EndRedoes
EndUndoRedoHistory
Fore
SplineSet
87 1027 m 1
 87 1241 l 1
 663 857 l 1
 663 646 l 1
 87 264 l 1
 87 484 l 1
 520 749 l 1
 87 1027 l 1
EndSplineSet
EndChar

StartChar: greaterequal
Encoding: 8805 8805 209
Width: 781
VWidth: 0
Flags: HW
LayerCount: 2
UndoRedoHistory
Layer: 1
Undoes
EndUndoes
Redoes
EndRedoes
EndUndoRedoHistory
Fore
SplineSet
105 144 m 1
 645 144 l 1
 645 0 l 1
 105 0 l 1
 105 144 l 1
103 1039 m 1
 103 1259 l 1
 680 878 l 1
 680 667 l 1
 103 282 l 1
 103 496 l 1
 536 774 l 1
 103 1039 l 1
EndSplineSet
EndChar

StartChar: guillemotleft
Encoding: 171 171 210
Width: 1304
VWidth: 0
Flags: HW
LayerCount: 2
UndoRedoHistory
Layer: 1
Undoes
EndUndoes
Redoes
EndRedoes
EndUndoRedoHistory
Fore
SplineSet
82 839 m 1
 560 1110 l 1
 560 903 l 1
 248 749 l 1
 560 586 l 1
 560 372 l 1
 82 657 l 1
 82 839 l 1
620 839 m 1
 1098 1110 l 1
 1098 903 l 1
 786 749 l 1
 1098 586 l 1
 1098 372 l 1
 620 657 l 1
 620 839 l 1
EndSplineSet
EndChar

StartChar: guillemotright
Encoding: 187 187 211
Width: 1304
VWidth: 0
Flags: HW
LayerCount: 2
UndoRedoHistory
Layer: 1
Undoes
EndUndoes
Redoes
EndRedoes
EndUndoRedoHistory
Fore
SplineSet
172 903 m 1
 172 1110 l 1
 650 839 l 1
 650 657 l 1
 172 372 l 1
 172 586 l 1
 484 749 l 1
 172 903 l 1
710 903 m 1
 710 1110 l 1
 1188 839 l 1
 1188 657 l 1
 710 372 l 1
 710 586 l 1
 1022 749 l 1
 710 903 l 1
EndSplineSet
EndChar

StartChar: guilsinglleft
Encoding: 8249 8249 212
Width: 606
VWidth: 0
Flags: HW
LayerCount: 2
UndoRedoHistory
Layer: 1
Undoes
EndUndoes
Redoes
EndRedoes
EndUndoRedoHistory
Fore
SplineSet
70 839 m 1
 548 1110 l 1
 548 903 l 1
 236 749 l 1
 548 586 l 1
 548 372 l 1
 70 657 l 1
 70 839 l 1
EndSplineSet
EndChar

StartChar: guilsinglright
Encoding: 8250 8250 213
Width: 727
VWidth: 0
Flags: HW
LayerCount: 2
UndoRedoHistory
Layer: 1
Undoes
EndUndoes
Redoes
EndRedoes
EndUndoRedoHistory
Fore
SplineSet
153 903 m 1
 153 1110 l 1
 631 839 l 1
 631 657 l 1
 153 372 l 1
 153 586 l 1
 465 749 l 1
 153 903 l 1
EndSplineSet
EndChar

StartChar: h
Encoding: 104 104 214
Width: 969
VWidth: 0
Flags: HW
LayerCount: 2
UndoRedoHistory
Layer: 1
Undoes
EndUndoes
Redoes
EndRedoes
EndUndoRedoHistory
Fore
SplineSet
147 1779 m 1
 352 1779 l 1
 352 1341 l 1
 378 1434 471 1519 591 1519 c 0
 741 1519 832 1413 832 1196 c 2
 832 0 l 1
 627 0 l 1
 627 1179 l 2
 627 1301 578 1342 504 1342 c 0
 421 1342 352 1285 352 1154 c 2
 352 0 l 1
 147 0 l 1
 147 1779 l 1
EndSplineSet
EndChar

StartChar: hbar
Encoding: 295 295 215
Width: 969
VWidth: 0
Flags: HW
LayerCount: 2
UndoRedoHistory
Layer: 1
Undoes
EndUndoes
Redoes
EndRedoes
EndUndoRedoHistory
Fore
SplineSet
0 1692 m 5
 561 1692 l 5
 561 1576 l 5
 0 1576 l 5
 0 1692 l 5
EndSplineSet
Refer: 214 104 N 1 0 0 1 0 0 2
EndChar

StartChar: hungarumlaut
Encoding: 733 733 217
Width: 1300
VWidth: 0
Flags: HW
LayerCount: 2
UndoRedoHistory
Layer: 1
Undoes
EndUndoes
Redoes
EndRedoes
EndUndoRedoHistory
Fore
SplineSet
396 505 m 1
 524 920 l 1
 709 833 l 1
 486 467 l 1
 396 505 l 1
688 505 m 1
 873 920 l 1
 1061 825 l 1
 777 459 l 1
 688 505 l 1
EndSplineSet
EndChar

StartChar: hyphen
Encoding: 45 45 218
Width: 696
VWidth: 0
Flags: HW
LayerCount: 2
UndoRedoHistory
Layer: 1
Undoes
EndUndoes
Redoes
EndRedoes
EndUndoRedoHistory
Fore
SplineSet
88 899 m 1
 540 899 l 1
 540 763 l 1
 88 763 l 1
 88 899 l 1
EndSplineSet
EndChar

StartChar: i
Encoding: 105 105 219
Width: 503
VWidth: 0
Flags: HW
LayerCount: 2
UndoRedoHistory
Layer: 1
Undoes
EndUndoes
Redoes
EndRedoes
EndUndoRedoHistory
Fore
SplineSet
150 1826 m 1
 356 1826 l 1
 356 1638 l 1
 150 1638 l 1
 150 1826 l 1
150 1500 m 1
 355 1500 l 1
 355 0 l 1
 150 0 l 1
 150 1500 l 1
EndSplineSet
EndChar

StartChar: infinity
Encoding: 8734 8734 227
Width: 1300
VWidth: 0
Flags: HW
LayerCount: 2
UndoRedoHistory
Layer: 1
Undoes
EndUndoes
Redoes
EndRedoes
EndUndoRedoHistory
Fore
SplineSet
1031 740 m 0
 1031 828 983 886 910 886 c 0
 834 886 744 828 686 740 c 1
 740 652 830 594 910 594 c 0
 983 594 1031 652 1031 740 c 0
588 740 m 1
 534 826 449 884 374 884 c 0
 306 884 261 826 261 740 c 0
 261 652 306 594 374 594 c 0
 447 594 532 652 588 740 c 1
639 885 m 1
 715 979 824 1041 912 1041 c 0
 1074 1041 1182 922 1182 744 c 0
 1182 561 1074 439 912 439 c 0
 817 439 708 497 639 585 c 1
 568 505 460 452 370 452 c 0
 213 452 108 569 108 744 c 0
 108 914 213 1028 370 1028 c 0
 454 1028 562 971 639 885 c 1
EndSplineSet
EndChar

StartChar: integral
Encoding: 8747 8747 228
Width: 767
VWidth: 0
Flags: HW
LayerCount: 2
UndoRedoHistory
Layer: 1
Undoes
EndUndoes
Redoes
EndRedoes
EndUndoRedoHistory
Fore
SplineSet
286 1539 m 2
 286 1703 351 1785 483 1785 c 0
 536 1785 593 1774 652 1752 c 1
 652 1603 l 1
 612 1615 581 1622 557 1622 c 0
 498 1622 480 1584 480 1503 c 2
 480 221 l 2
 480 66 415 -15 270 -15 c 0
 220 -15 169 -7 115 8 c 1
 115 157 l 1
 135 156 152 154 167 154 c 0
 272 154 286 187 286 305 c 2
 286 1539 l 2
EndSplineSet
EndChar

StartChar: j
Encoding: 106 106 231
Width: 533
VWidth: 0
Flags: HW
LayerCount: 2
UndoRedoHistory
Layer: 1
Undoes
EndUndoes
Redoes
EndRedoes
EndUndoRedoHistory
Fore
SplineSet
180 1826 m 5
 386 1826 l 5
 386 1638 l 5
 180 1638 l 5
 180 1826 l 5
182 1500 m 1
 387 1500 l 1
 387 20 l 2
 387 -151 300 -205 221 -209 c 1
 148 -215 79 -203 74 -200 c 1
 74 -56 l 1
 76 -56 109 -59 132 -57 c 0
 171 -53 182 -27 182 10 c 2
 182 1500 l 1
EndSplineSet
EndChar

StartChar: k
Encoding: 107 107 233
Width: 866
VWidth: 0
Flags: HW
LayerCount: 2
UndoRedoHistory
Layer: 1
Undoes
EndUndoes
Redoes
EndRedoes
EndUndoRedoHistory
Fore
SplineSet
147 1779 m 1
 352 1779 l 1
 352 787 l 1
 647 1500 l 1
 854 1500 l 1
 538 759 l 1
 871 0 l 1
 660 0 l 1
 352 730 l 1
 352 0 l 1
 147 0 l 1
 147 1779 l 1
EndSplineSet
EndChar

StartChar: kgreenlandic
Encoding: 312 312 235
Width: 866
VWidth: 0
Flags: HW
LayerCount: 2
UndoRedoHistory
Layer: 1
Undoes
EndUndoes
Redoes
EndRedoes
EndUndoRedoHistory
Fore
SplineSet
147 1500 m 1
 352 1500 l 1
 352 787 l 1
 647 1500 l 1
 854 1500 l 1
 538 759 l 1
 871 0 l 1
 660 0 l 1
 352 730 l 1
 352 0 l 1
 147 0 l 1
 147 1500 l 1
EndSplineSet
EndChar

StartChar: l
Encoding: 108 108 236
Width: 501
VWidth: 0
Flags: HW
LayerCount: 2
UndoRedoHistory
Layer: 1
Undoes
EndUndoes
Redoes
EndRedoes
EndUndoRedoHistory
Fore
SplineSet
148 1779 m 1
 353 1779 l 1
 353 0 l 1
 148 0 l 1
 148 1779 l 1
EndSplineSet
EndChar

StartChar: less
Encoding: 60 60 241
Width: 730
VWidth: 0
Flags: HW
LayerCount: 2
UndoRedoHistory
Layer: 1
Undoes
EndUndoes
Redoes
EndRedoes
EndUndoRedoHistory
Fore
SplineSet
64 860 m 1
 640 1241 l 1
 640 1021 l 1
 207 755 l 1
 640 478 l 1
 640 264 l 1
 64 649 l 1
 64 860 l 1
EndSplineSet
EndChar

StartChar: lessequal
Encoding: 8804 8804 242
Width: 781
VWidth: 0
Flags: HW
LayerCount: 2
UndoRedoHistory
Layer: 1
Undoes
EndUndoes
Redoes
EndRedoes
EndUndoRedoHistory
Fore
SplineSet
102 144 m 1
 642 144 l 1
 642 0 l 1
 102 0 l 1
 102 144 l 1
70 878 m 1
 647 1259 l 1
 647 1039 l 1
 213 774 l 1
 647 496 l 1
 647 282 l 1
 70 667 l 1
 70 878 l 1
EndSplineSet
EndChar

StartChar: logicalnot
Encoding: 172 172 243
Width: 947
VWidth: 0
Flags: HW
LayerCount: 2
UndoRedoHistory
Layer: 1
Undoes
EndUndoes
Redoes
EndRedoes
EndUndoRedoHistory
Fore
SplineSet
97 979 m 1
 793 979 l 5
 793 439 l 5
 602 439 l 1
 602 796 l 1
 97 796 l 1
 97 979 l 1
EndSplineSet
EndChar

StartChar: lozenge
Encoding: 9674 9674 244
Width: 921
VWidth: 0
Flags: HW
LayerCount: 2
UndoRedoHistory
Layer: 1
Undoes
EndUndoes
Redoes
EndRedoes
EndUndoRedoHistory
Fore
SplineSet
629 863 m 1
 475 1437 l 1
 443 1437 l 1
 289 863 l 1
 443 289 l 1
 475 289 l 1
 629 863 l 1
297 1626 m 1
 618 1626 l 1
 847 863 l 1
 618 110 l 1
 297 110 l 1
 74 863 l 1
 297 1626 l 1
EndSplineSet
EndChar

StartChar: lslash
Encoding: 322 322 245
Width: 691
VWidth: 0
Flags: HW
LayerCount: 2
UndoRedoHistory
Layer: 1
Undoes
EndUndoes
Redoes
EndRedoes
EndUndoRedoHistory
Fore
SplineSet
75 921 m 5
 601 1153 l 5
 601 986 l 5
 75 754 l 5
 75 921 l 5
EndSplineSet
Refer: 236 108 N 1 0 0 1 68 0 2
EndChar

StartChar: m
Encoding: 109 109 246
Width: 1432
VWidth: 0
Flags: HW
LayerCount: 2
UndoRedoHistory
Layer: 1
Undoes
EndUndoes
Redoes
EndRedoes
EndUndoRedoHistory
Fore
SplineSet
352 1344 m 1
 379 1439 462 1519 586 1519 c 0
 684 1519 760 1473 798 1367 c 1
 847 1458 936 1519 1052 1519 c 0
 1211 1519 1295 1405 1295 1184 c 2
 1295 0 l 1
 1090 0 l 1
 1090 1190 l 2
 1090 1303 1042 1342 970 1342 c 0
 893 1342 832 1311 824 1203 c 0
 824 1197 824 1190 824 1184 c 2
 824 0 l 1
 618 0 l 1
 618 1191 l 2
 618 1297 575 1342 500 1342 c 0
 402 1342 352 1274 352 1168 c 2
 352 0 l 1
 147 0 l 1
 147 1500 l 1
 352 1500 l 1
 352 1344 l 1
EndSplineSet
EndChar

StartChar: macron
Encoding: 175 175 247
Width: 696
VWidth: 0
Flags: HW
LayerCount: 2
UndoRedoHistory
Layer: 1
Undoes
EndUndoes
Redoes
EndRedoes
EndUndoRedoHistory
Fore
SplineSet
90 544 m 1
 591 544 l 1
 591 412 l 1
 90 412 l 1
 90 544 l 1
EndSplineSet
EndChar

StartChar: minus
Encoding: 8722 8722 248
Width: 637
VWidth: 0
Flags: HW
LayerCount: 2
UndoRedoHistory
Layer: 1
Undoes
EndUndoes
Redoes
EndRedoes
EndUndoRedoHistory
Fore
SplineSet
60 741 m 1
 576 741 l 1
 576 509 l 1
 60 509 l 1
 60 741 l 1
EndSplineSet
EndChar

StartChar: mu
Encoding: 956 956 249
Width: 971
VWidth: 0
Flags: HW
LayerCount: 2
UndoRedoHistory
Layer: 1
Undoes
EndUndoes
Redoes
EndRedoes
EndUndoRedoHistory
Fore
SplineSet
616 1500 m 1
 822 1500 l 1
 822 0 l 1
 616 0 l 1
 616 153 l 1
 586 59 510 -20 388 -20 c 0
 371 -20 354 -19 338 -15 c 1
 338 -186 l 1
 137 -186 l 1
 137 1500 l 1
 342 1500 l 1
 342 335 l 2
 342 219 382 158 471 158 c 0
 570 158 616 235 616 340 c 2
 616 1500 l 1
EndSplineSet
EndChar

StartChar: multiply
Encoding: 215 215 250
Width: 710
VWidth: 0
Flags: HW
LayerCount: 2
UndoRedoHistory
Layer: 1
Undoes
EndUndoes
Redoes
EndRedoes
EndUndoRedoHistory
Fore
SplineSet
533.5 936 m 1
 634.5 832 l 1
 457.5 655 l 1
 634.5 478 l 1
 533.5 374 l 1
 355 552.5 l 1
 176.5 374 l 1
 75.5 478 l 1
 252.5 655 l 1
 75.5 832 l 1
 176.5 936 l 1
 355 757.5 l 1
 533.5 936 l 1
EndSplineSet
EndChar

StartChar: n
Encoding: 110 110 251
Width: 970
VWidth: 0
Flags: HW
LayerCount: 2
UndoRedoHistory
Layer: 1
Undoes
EndUndoes
Redoes
EndRedoes
EndUndoRedoHistory
Fore
SplineSet
352 1341 m 1
 378 1434 473 1519 594 1519 c 0
 744 1519 833 1413 833 1196 c 2
 833 0 l 1
 628 0 l 1
 628 1195 l 2
 628 1301 574 1347 500 1347 c 0
 417 1347 352 1295 352 1175 c 2
 352 0 l 1
 147 0 l 1
 147 1500 l 1
 352 1500 l 1
 352 1341 l 1
EndSplineSet
EndChar

StartChar: nine
Encoding: 57 57 255
Width: 892
VWidth: 0
Flags: HW
LayerCount: 2
UndoRedoHistory
Layer: 1
Undoes
EndUndoes
Redoes
EndRedoes
EndUndoRedoHistory
Fore
SplineSet
536 1279 m 2
 536 1494 515 1602 406 1602 c 0
 290 1602 271 1492 271 1278 c 2
 271 1177 l 2
 271 919 292 828 408 828 c 0
 479 828 521 851 536 884 c 1
 536 1279 l 2
67 1250 m 2
 67 1564 114 1780 407 1780 c 0
 706 1780 742 1566 742 1244 c 2
 742 536 l 2
 742 158 674 -20 411 -20 c 0
 192 -20 105 119 101 449 c 1
 101 513 l 1
 297 513 l 1
 297 483 l 1
 298 211 320 155 427 155 c 0
 542 155 536 262 536 511 c 2
 536 706 l 1
 502 678 444 663 376 663 c 0
 132 663 67 854 67 1205 c 2
 67 1250 l 2
EndSplineSet
EndChar

StartChar: numbersign
Encoding: 35 35 258
Width: 1288
VWidth: 0
Flags: HW
LayerCount: 2
UndoRedoHistory
Layer: 1
Undoes
EndUndoes
Redoes
EndRedoes
EndUndoRedoHistory
Fore
SplineSet
709 759 m 1
 763 1032 l 1
 559 1032 l 1
 504 759 l 1
 709 759 l 1
907 1761 m 1
 1079 1761 l 1
 962 1170 l 1
 1106 1170 l 1
 1106 1036 l 1
 935 1036 l 1
 881 760 l 1
 1051 760 l 1
 1051 626 l 1
 854 626 l 1
 730 0 l 1
 559 0 l 1
 681 626 l 1
 478 626 l 1
 356 0 l 1
 185 0 l 1
 308 626 l 1
 161 626 l 1
 161 760 l 1
 335 760 l 1
 389 1036 l 1
 216 1036 l 1
 216 1170 l 1
 416 1170 l 1
 533 1761 l 1
 705 1761 l 1
 586 1170 l 1
 788 1170 l 1
 907 1761 l 1
EndSplineSet
EndChar

StartChar: o
Encoding: 111 111 259
Width: 914
VWidth: 0
Flags: HW
LayerCount: 2
UndoRedoHistory
Layer: 1
Undoes
EndUndoes
Redoes
EndRedoes
EndUndoRedoHistory
Fore
SplineSet
584 1068 m 2
 584 1235 565 1347 459 1347 c 0
 346 1347 330 1235 330 1068 c 2
 330 439 l 2
 330 268 346 153 459 153 c 0
 566 153 584 268 584 439 c 2
 584 1068 l 2
124 1027 m 2
 124 1309 187 1518 459 1518 c 0
 732 1518 790 1310 790 1027 c 2
 790 496 l 2
 790 190 744 -18 459 -18 c 0
 176 -18 124 185 124 496 c 2
 124 1027 l 2
EndSplineSet
EndChar

StartChar: oe
Encoding: 339 339 264
Width: 1358
VWidth: 0
Flags: HW
LayerCount: 2
UndoRedoHistory
Layer: 1
Undoes
EndUndoes
Redoes
EndRedoes
EndUndoRedoHistory
Fore
SplineSet
1038 1073 m 2
 1038 1252 1033 1349 927 1349 c 0
 808 1349 795 1228 795 1061 c 2
 795 889 l 1
 1038 889 l 1
 1038 1073 l 2
588 1068 m 2
 588 1235 568 1347 462 1347 c 0
 349 1347 331 1235 331 1068 c 2
 331 439 l 2
 331 268 349 153 462 153 c 0
 569 153 588 268 588 439 c 2
 588 1068 l 2
693 1403 m 1
 744 1472 819 1518 927 1518 c 0
 1201 1518 1243 1315 1243 1026 c 1
 1243 1026 1243 750 1242 740 c 1
 794 740 l 1
 794 444 l 2
 794 254 804 153 921 153 c 0
 1033 153 1038 276 1038 451 c 0
 1038 463 1038 561 1037 562 c 1
 1240 562 l 1
 1240 502 l 2
 1240 190 1211 -18 919 -18 c 0
 810 -18 738 27 689 96 c 1
 639 28 566 -18 462 -18 c 0
 179 -18 124 186 124 497 c 2
 124 1027 l 2
 124 1309 190 1518 462 1518 c 0
 568 1518 642 1472 693 1403 c 1
EndSplineSet
EndChar

StartChar: ogonek
Encoding: 731 731 265
Width: 1015
VWidth: 0
Flags: HW
LayerCount: 2
UndoRedoHistory
Layer: 1
Undoes
EndUndoes
Redoes
EndRedoes
EndUndoRedoHistory
Fore
SplineSet
646 0 m 1
 731 0 l 1
 612 -117 531 -259 531 -365 c 0
 531 -447 582 -496 680 -496 c 0
 749 -496 806 -478 812 -476 c 1
 812 -591 l 1
 789 -604 711 -626 643 -626 c 0
 461 -626 373 -529 373 -396 c 0
 373 -262 469 -100 646 0 c 1
EndSplineSet
EndChar

StartChar: one
Encoding: 49 49 269
Width: 645
VWidth: 0
Flags: HW
LayerCount: 2
UndoRedoHistory
Layer: 1
Undoes
EndUndoes
Redoes
EndRedoes
EndUndoRedoHistory
Fore
SplineSet
325 1761 m 1
 471 1761 l 1
 471 0 l 1
 265 0 l 1
 265 1483 l 1
 217 1426 121 1397 47 1397 c 1
 47 1541 l 1
 153 1556 269 1629 325 1761 c 1
EndSplineSet
EndChar

StartChar: onehalf
Encoding: 189 189 270
Width: 1620
VWidth: 0
Flags: HW
LayerCount: 2
UndoRedoHistory
Layer: 1
Undoes
EndUndoes
Redoes
EndRedoes
EndUndoRedoHistory
Fore
SplineSet
1092 834 m 2
 1092 1105 1111 1264 1332 1264 c 0
 1499 1264 1538 1089 1538 919 c 0
 1538 585 1295 416 1245 109 c 1
 1522 109 l 1
 1522 1 l 1
 1096 1 l 1
 1096 66 l 2
 1096 184 1319 643 1346 675 c 1
 1378 734 1399 843 1399 930 c 0
 1399 1108 1365 1142 1319 1142 c 0
 1273 1142 1235 1109 1235 920 c 2
 1235 757 l 1
 1092 757 l 1
 1092 834 l 2
297 1728 m 1
 397 1728 l 1
 397 482 l 1
 250 482 l 1
 250 1533 l 1
 214 1495 148 1476 95 1476 c 1
 95 1572 l 1
 170 1581 263 1637 297 1728 c 1
936 1768 m 1
 1089 1768 l 1
 610 0 l 1
 457 0 l 1
 936 1768 l 1
EndSplineSet
EndChar

StartChar: onequarter
Encoding: 188 188 271
Width: 1535
VWidth: 0
Flags: HW
LayerCount: 2
UndoRedoHistory
Layer: 1
Undoes
EndUndoes
Redoes
EndRedoes
EndUndoRedoHistory
Fore
SplineSet
1190 325 m 1
 1190 928 l 1
 1028 325 l 1
 1190 325 l 1
1160 1147 m 1
 1316 1147 l 1
 1316 325 l 1
 1406 325 l 1
 1406 219 l 1
 1316 219 l 1
 1316 0 l 1
 1190 0 l 1
 1190 219 l 1
 909 219 l 1
 909 310 l 1
 1160 1147 l 1
297 1728 m 1
 397 1728 l 1
 397 482 l 1
 250 482 l 1
 250 1533 l 1
 214 1495 148 1476 95 1476 c 1
 95 1572 l 1
 170 1581 263 1637 297 1728 c 1
936 1768 m 1
 1089 1768 l 1
 610 0 l 1
 457 0 l 1
 936 1768 l 1
EndSplineSet
EndChar

StartChar: ordfeminine
Encoding: 170 170 272
Width: 927
VWidth: 0
Flags: HW
LayerCount: 2
UndoRedoHistory
Layer: 1
Undoes
EndUndoes
Redoes
EndRedoes
EndUndoRedoHistory
Fore
SplineSet
569 598 m 1
 569 1051 l 1
 403 977 366 952 366 814 c 2
 366 706 l 2
 366 569 385 515 453 515 c 0
 511 515 555 562 569 598 c 1
216 1246 m 2
 216 1450 251 1608 480 1608 c 0
 697 1608 734 1467 734 1210 c 2
 734 393 l 1
 570 393 l 1
 570 493 l 1
 558 451 500 382 406 382 c 0
 261 382 202 501 201 700 c 1
 201 818 l 2
 201 1030 354 1076 569 1163 c 1
 569 1231 l 2
 569 1386 570 1471 477 1471 c 0
 392 1471 379 1409 379 1255 c 2
 379 1211 l 1
 216 1211 l 1
 216 1246 l 2
EndSplineSet
EndChar

StartChar: ordmasculine
Encoding: 186 186 273
Width: 908
VWidth: 0
Flags: HW
LayerCount: 2
UndoRedoHistory
Layer: 1
Undoes
EndUndoes
Redoes
EndRedoes
EndUndoRedoHistory
Fore
SplineSet
571 1246 m 2
 571 1380 556 1470 471 1470 c 0
 380 1470 366 1380 366 1246 c 2
 366 743 l 2
 366 605 382 514 471 514 c 1
 553 513 571 604 571 743 c 2
 571 1246 l 2
200 1213 m 2
 200 1438 249 1607 471 1607 c 0
 695 1607 737 1440 737 1213 c 2
 737 789 l 2
 737 545 699 377 471 377 c 0
 244 377 200 540 200 789 c 2
 200 1213 l 2
EndSplineSet
EndChar

StartChar: oslash
Encoding: 248 248 274
Width: 879
VWidth: 0
Flags: HW
LayerCount: 2
UndoRedoHistory
Layer: 1
Undoes
EndUndoes
Redoes
EndRedoes
EndUndoRedoHistory
Fore
SplineSet
158 -145 m 5
 667 1672 l 5
 768 1644 l 5
 258 -173 l 5
 158 -145 l 5
EndSplineSet
Refer: 259 111 N 1 0 0 1 0 0 2
EndChar

StartChar: p
Encoding: 112 112 276
Width: 938
VWidth: 0
Flags: HW
LayerCount: 2
UndoRedoHistory
Layer: 1
Undoes
EndUndoes
Redoes
EndRedoes
EndUndoRedoHistory
Fore
SplineSet
609 1066 m 2
 609 1231 598 1346 491 1346 c 0
 405 1346 352 1306 352 1066 c 2
 352 451 l 2
 352 252 375 154 487 154 c 1
 586 155 609 250 609 459 c 2
 609 1066 l 2
352 1375 m 1
 392 1473 479 1513 560 1513 c 0
 776 1513 815 1305 815 1030 c 2
 815 487 l 2
 815 203 770 -18 527 -18 c 0
 450 -18 384 37 352 100 c 1
 352 -274 l 1
 147 -274 l 1
 147 1500 l 1
 352 1500 l 1
 352 1375 l 1
EndSplineSet
EndChar

StartChar: paragraph
Encoding: 182 182 277
Width: 1119
VWidth: 0
Flags: HW
LayerCount: 2
UndoRedoHistory
Layer: 1
Undoes
EndUndoes
Redoes
EndRedoes
EndUndoRedoHistory
Fore
SplineSet
654 1761 m 2
 957 1761 l 1
 957 0 l 1
 779 0 l 1
 779 1575 l 1
 636 1575 l 1
 636 0 l 1
 458 0 l 1
 458 1135 l 1
 244 1159 135 1263 135 1456 c 0
 135 1698 277 1761 654 1761 c 2
EndSplineSet
EndChar

StartChar: parenleft
Encoding: 40 40 278
Width: 567
VWidth: 0
Flags: HW
LayerCount: 2
UndoRedoHistory
Layer: 1
Undoes
EndUndoes
Redoes
EndRedoes
EndUndoRedoHistory
Fore
SplineSet
131 1381 m 2
 131 1744 208 1811 475 1811 c 1
 475 1656 l 1
 355 1656 336 1638 336 1385 c 2
 336 309 l 2
 336 57 355 38 475 38 c 1
 475 -117 l 1
 208 -117 131 -50 131 313 c 2
 131 1381 l 2
EndSplineSet
EndChar

StartChar: parenright
Encoding: 41 41 279
Width: 567
VWidth: 0
Flags: HW
LayerCount: 2
UndoRedoHistory
Layer: 1
Undoes
EndUndoes
Redoes
EndRedoes
EndUndoRedoHistory
Fore
SplineSet
92 1656 m 1
 92 1811 l 1
 359 1811 437 1744 437 1381 c 2
 437 313 l 2
 437 -50 359 -117 92 -117 c 1
 92 38 l 1
 212 38 231 57 231 309 c 2
 231 1385 l 2
 231 1638 212 1656 92 1656 c 1
EndSplineSet
EndChar

StartChar: partialdiff
Encoding: 8706 8706 280
Width: 1072
VWidth: 0
Flags: HW
LayerCount: 2
UndoRedoHistory
Layer: 1
Undoes
EndUndoes
Redoes
EndRedoes
EndUndoRedoHistory
Fore
SplineSet
632 899 m 1
 598.527844356 919.825182442 555.910495455 939.714854779 515.839195759 939.714854779 c 0
 458.920039022 939.714854779 407.137968441 899.584066954 394 765 c 2
 353 345 l 2
 351.286102738 327.443003654 350.477907153 311.030172224 350.477907153 295.73233889 c 0
 350.477907153 175.468942708 397.710303335 144.341805948 453.640615847 144.341805948 c 0
 513.806179815 144.341805948 556.744493654 146.444936542 571 289 c 2
 632 899 l 1
259 1607 m 1
 373.104716621 1637.93874409 467.182815716 1651.95249645 544.360957298 1651.95249645 c 0
 797.228350418 1651.95249645 868.676796501 1501.51660363 868.676796501 1303.03857069 c 0
 868.676796501 1238.89168478 861.213700137 1169.72659147 850 1099 c 1
 750 246 l 2
 735.872070312 125.4921875 669 -21 446 -21 c 0
 280.777972975 -21 162.204274115 58.1569419744 162.204274115 309.579991693 c 0
 162.204274115 319.808447527 162.400518995 330.322011627 162.797851562 341.126953125 c 0
 182.797851562 885.00390625 242.174773709 1086 485 1086 c 0
 548 1086 577 1073 654 1047 c 1
 669.613630802 1149.60385956 683.966785977 1241.07579076 683.966785977 1315.58595391 c 0
 683.966785977 1442.24202245 642.49350846 1519.88725644 495.23969353 1519.88725644 c 0
 440.319444379 1519.88725644 370.684961281 1509.08668607 283 1486 c 1
 259 1607 l 1
EndSplineSet
EndChar

StartChar: percent
Encoding: 37 37 281
Width: 2178
VWidth: 0
Flags: HW
LayerCount: 2
UndoRedoHistory
Layer: 1
Undoes
EndUndoes
Redoes
EndRedoes
EndUndoRedoHistory
Fore
SplineSet
1837 832 m 2
 1837 974 1810 1020 1712 1020 c 0
 1614 1020 1587 973 1587 832 c 2
 1587 336 l 2
 1587 191 1615 141 1712 141 c 0
 1808 141 1837 191 1837 336 c 2
 1837 832 l 2
1401 763 m 2
 1401 1074 1478 1181 1712 1181 c 0
 1945 1181 2022 1074 2022 763 c 2
 2022 408 l 2
 2022 91 1942 -20 1712 -20 c 0
 1481 -20 1401 91 1401 408 c 2
 1401 763 l 2
156 1364 m 2
 156 1675 233 1782 466 1782 c 0
 700 1782 777 1675 777 1364 c 2
 777 1009 l 2
 777 692 697 581 466 581 c 0
 236 581 156 692 156 1009 c 2
 156 1364 l 2
591 1433 m 2
 591 1575 564 1621 466 1621 c 0
 368 1621 341 1574 341 1433 c 2
 341 937 l 2
 341 792 369 742 466 742 c 0
 563 742 591 792 591 937 c 2
 591 1433 l 2
1360 1760 m 1
 1531 1760 l 1
 831 0 l 1
 652 0 l 1
 1360 1760 l 1
EndSplineSet
EndChar

StartChar: period
Encoding: 46 46 282
Width: 532
VWidth: 0
Flags: HW
LayerCount: 2
UndoRedoHistory
Layer: 1
Undoes
EndUndoes
Redoes
EndRedoes
EndUndoRedoHistory
Fore
SplineSet
171 198 m 1
 346 198 l 1
 346 0 l 1
 171 0 l 1
 171 198 l 1
EndSplineSet
EndChar

StartChar: periodcentered
Encoding: 183 183 283
Width: 480
VWidth: 0
Flags: HW
LayerCount: 2
UndoRedoHistory
Layer: 1
Undoes
EndUndoes
Redoes
EndRedoes
EndUndoRedoHistory
Fore
SplineSet
148 977 m 1
 348 977 l 1
 348 769 l 1
 148 769 l 1
 148 977 l 1
EndSplineSet
EndChar

StartChar: perthousand
Encoding: 8240 8240 284
Width: 3042
VWidth: 0
Flags: HW
LayerCount: 2
UndoRedoHistory
Layer: 1
Undoes
EndUndoes
Redoes
EndRedoes
EndUndoRedoHistory
Fore
SplineSet
2701 832 m 2
 2701 974 2674 1020 2576 1020 c 0
 2478 1020 2451 973 2451 832 c 2
 2451 336 l 2
 2451 191 2479 141 2576 141 c 0
 2673 141 2701 191 2701 336 c 2
 2701 832 l 2
2265 763 m 2
 2265 1074 2342 1181 2576 1181 c 0
 2809 1181 2886 1074 2886 763 c 2
 2886 408 l 2
 2886 91 2806 -20 2576 -20 c 0
 2345 -20 2265 91 2265 408 c 2
 2265 763 l 2
1419 763 m 2
 1419 1074 1496 1181 1729 1181 c 0
 1963 1181 2040 1074 2040 763 c 2
 2040 408 l 2
 2040 91 1960 -20 1729 -20 c 0
 1499 -20 1419 91 1419 408 c 2
 1419 763 l 2
1854 832 m 2
 1854 974 1827 1020 1729 1020 c 0
 1631 1020 1604 973 1604 832 c 2
 1604 336 l 2
 1604 191 1632 141 1729 141 c 0
 1826 141 1854 191 1854 336 c 2
 1854 832 l 2
156 1364 m 2
 156 1675 233 1782 466 1782 c 0
 700 1782 777 1675 777 1364 c 2
 777 1009 l 2
 777 692 697 581 466 581 c 0
 236 581 156 692 156 1009 c 2
 156 1364 l 2
591 1433 m 2
 591 1575 564 1621 466 1621 c 0
 368 1621 341 1574 341 1433 c 2
 341 937 l 2
 341 792 369 742 466 742 c 0
 563 742 591 792 591 937 c 2
 591 1433 l 2
1360 1760 m 1
 1531 1760 l 1
 831 0 l 1
 652 0 l 1
 1360 1760 l 1
EndSplineSet
EndChar

StartChar: plus
Encoding: 43 43 286
Width: 808
VWidth: 0
Flags: HW
LayerCount: 2
UndoRedoHistory
Layer: 1
Undoes
EndUndoes
Redoes
EndRedoes
EndUndoRedoHistory
Fore
SplineSet
327 1137 m 1
 476 1137 l 1
 476 891 l 1
 703 891 l 1
 703 751 l 1
 476 751 l 1
 476 501 l 1
 327 501 l 1
 327 751 l 1
 103 751 l 1
 103 891 l 1
 327 891 l 1
 327 1137 l 1
EndSplineSet
EndChar

StartChar: plusminus
Encoding: 177 177 287
Width: 854
VWidth: 0
Flags: HW
LayerCount: 2
UndoRedoHistory
Layer: 1
Undoes
EndUndoes
Redoes
EndRedoes
EndUndoRedoHistory
Fore
SplineSet
165 337 m 1
 681 337 l 1
 681 188 l 1
 165 188 l 1
 165 337 l 1
353 1152 m 1
 501 1152 l 1
 501 906 l 1
 729 906 l 1
 729 766 l 1
 501 766 l 1
 501 516 l 1
 353 516 l 1
 353 766 l 1
 129 766 l 1
 129 906 l 1
 353 906 l 1
 353 1152 l 1
EndSplineSet
EndChar

StartChar: product
Encoding: 8719 8719 288
Width: 981
VWidth: 0
Flags: HW
LayerCount: 2
UndoRedoHistory
Layer: 1
Undoes
EndUndoes
Redoes
EndRedoes
EndUndoRedoHistory
Fore
SplineSet
146 1760 m 1
 835 1760 l 1
 835 0 l 1
 631 0 l 1
 631 1598 l 1
 350 1598 l 1
 350 0 l 1
 146 0 l 1
 146 1760 l 1
EndSplineSet
EndChar

StartChar: q
Encoding: 113 113 289
Width: 931
VWidth: 0
Flags: HW
LayerCount: 2
UndoRedoHistory
Layer: 1
Undoes
EndUndoes
Redoes
EndRedoes
EndUndoRedoHistory
Fore
SplineSet
584 1050 m 2
 584 1252 558 1346 450 1346 c 1
 349 1345 329 1251 329 1044 c 2
 329 437 l 2
 329 269 338 154 445 154 c 0
 535 154 584 198 584 435 c 2
 584 1050 l 2
124 1030 m 2
 124 1304 168 1513 380 1513 c 0
 461 1513 544 1478 585 1383 c 1
 585 1500 l 1
 790 1500 l 1
 790 -274 l 1
 585 -274 l 1
 585 104 l 1
 557 38 489 -18 412 -18 c 0
 175 -18 124 196 124 480 c 2
 124 1030 l 2
EndSplineSet
EndChar

StartChar: question
Encoding: 63 63 290
Width: 799
VWidth: 0
Flags: HW
LayerCount: 2
UndoRedoHistory
Layer: 1
Undoes
EndUndoes
Redoes
EndRedoes
EndUndoRedoHistory
Fore
SplineSet
242 299 m 1
 419 299 l 1
 419 1 l 1
 242 1 l 1
 242 299 l 1
140 1370 m 2
 140 1549 156 1782 427 1782 c 0
 698 1782 716 1596 716 1299 c 0
 716 953 660 787 418 718 c 1
 418 494 l 1
 239 494 l 1
 239 810 l 1
 505 892 509 1017 509 1360 c 0
 509 1536 511 1604 431 1604 c 0
 344 1604 343 1542 343 1356 c 2
 343 1160 l 1
 140 1160 l 1
 140 1370 l 2
EndSplineSet
EndChar

StartChar: quotedbl
Encoding: 34 34 292
Width: 944
VWidth: 0
Flags: HW
LayerCount: 2
UndoRedoHistory
Layer: 1
Undoes
EndUndoes
Redoes
EndRedoes
EndUndoRedoHistory
Fore
SplineSet
220 1761 m 1
 419 1761 l 1
 354 1125 l 1
 284 1125 l 1
 220 1761 l 1
535 1761 m 1
 734 1761 l 1
 669 1125 l 1
 599 1125 l 1
 535 1761 l 1
EndSplineSet
EndChar

StartChar: quotedblbase
Encoding: 8222 8222 293
Width: 1016
VWidth: 0
Flags: HW
LayerCount: 2
UndoRedoHistory
Layer: 1
Undoes
EndUndoes
Redoes
EndRedoes
EndUndoRedoHistory
Fore
SplineSet
166 233 m 1
 468 233 l 1
 468 9 l 1
 353 -401 l 1
 221 -401 l 1
 307 0 l 1
 166 0 l 1
 166 233 l 1
622 233 m 1
 924 233 l 1
 924 9 l 1
 810 -401 l 1
 677 -401 l 1
 763 0 l 1
 622 0 l 1
 622 233 l 1
EndSplineSet
EndChar

StartChar: quotedblleft
Encoding: 8220 8220 294
Width: 1030
VWidth: 0
Flags: HW
LayerCount: 2
UndoRedoHistory
Layer: 1
Undoes
EndUndoes
Redoes
EndRedoes
EndUndoRedoHistory
Fore
SplineSet
273 1779 m 1
 406 1779 l 1
 320 1378 l 1
 461 1378 l 1
 461 1145 l 1
 159 1145 l 1
 159 1369 l 1
 273 1779 l 1
730 1779 m 1
 862 1779 l 1
 776 1378 l 1
 917 1378 l 1
 917 1145 l 1
 615 1145 l 1
 615 1369 l 1
 730 1779 l 1
EndSplineSet
EndChar

StartChar: quotedblright
Encoding: 8221 8221 295
Width: 1077
VWidth: 0
Flags: HW
LayerCount: 2
UndoRedoHistory
Layer: 1
Undoes
EndUndoes
Redoes
EndRedoes
EndUndoRedoHistory
Fore
SplineSet
173 1779 m 1
 475 1779 l 1
 475 1555 l 1
 361 1145 l 1
 228 1145 l 1
 314 1546 l 1
 173 1546 l 1
 173 1779 l 1
630 1779 m 1
 932 1779 l 1
 932 1555 l 1
 817 1145 l 1
 684 1145 l 1
 770 1546 l 1
 630 1546 l 1
 630 1779 l 1
EndSplineSet
EndChar

StartChar: quoteleft
Encoding: 8216 8216 296
Width: 591
VWidth: 0
Flags: HW
LayerCount: 2
UndoRedoHistory
Layer: 1
Undoes
EndUndoes
Redoes
EndRedoes
EndUndoRedoHistory
Fore
SplineSet
268 1779 m 1
 397 1779 l 1
 305 1356 l 1
 453 1356 l 1
 453 1116 l 1
 144 1116 l 1
 144 1347 l 1
 268 1779 l 1
EndSplineSet
EndChar

StartChar: quoteright
Encoding: 8217 8217 297
Width: 591
VWidth: 0
Flags: HW
LayerCount: 2
UndoRedoHistory
Layer: 1
Undoes
EndUndoes
Redoes
EndRedoes
EndUndoRedoHistory
Fore
SplineSet
160 1779 m 1
 469 1779 l 1
 469 1548 l 1
 344 1116 l 1
 215 1116 l 1
 307 1539 l 1
 160 1539 l 1
 160 1779 l 1
EndSplineSet
EndChar

StartChar: quotesinglbase
Encoding: 8218 8218 298
Width: 484
VWidth: 0
Flags: HW
LayerCount: 2
UndoRedoHistory
Layer: 1
Undoes
EndUndoes
Redoes
EndRedoes
EndUndoRedoHistory
Fore
SplineSet
97 232 m 1
 399 232 l 1
 399 9 l 1
 285 -382 l 1
 152 -382 l 1
 238 0 l 1
 97 0 l 1
 97 232 l 1
EndSplineSet
EndChar

StartChar: quotesingle
Encoding: 39 39 299
Width: 413
VWidth: 0
Flags: HW
LayerCount: 2
UndoRedoHistory
Layer: 1
Undoes
EndUndoes
Redoes
EndRedoes
EndUndoRedoHistory
Fore
SplineSet
112 1761 m 1
 309 1761 l 1
 244 1125 l 1
 172 1125 l 1
 112 1761 l 1
EndSplineSet
EndChar

StartChar: r
Encoding: 114 114 300
Width: 651
VWidth: 0
Flags: HW
LayerCount: 2
UndoRedoHistory
Layer: 1
Undoes
EndUndoes
Redoes
EndRedoes
EndUndoRedoHistory
Fore
SplineSet
353 1333 m 1
 387 1449 475 1518 608 1518 c 0
 613 1518 611 1344 611 1344 c 1
 515 1344 412 1313 353 1219 c 1
 353 0 l 1
 147 0 l 1
 147 1500 l 1
 353 1500 l 1
 353 1333 l 1
EndSplineSet
EndChar

StartChar: radical
Encoding: 8730 8730 302
Width: 1177
VWidth: 0
Flags: HW
LayerCount: 2
UndoRedoHistory
Layer: 1
Undoes
EndUndoes
Redoes
EndRedoes
EndUndoRedoHistory
Fore
SplineSet
679 1500 m 1
 1082 1500 l 5
 1082 1359 l 5
 878 1359 l 1
 617 0 l 1
 363 0 l 1
 99 741 l 1
 328 741 l 1
 478 258 l 1
 679 1500 l 1
EndSplineSet
EndChar

StartChar: registered
Encoding: 174 174 305
Width: 1502
VWidth: 0
Flags: HW
LayerCount: 2
UndoRedoHistory
Layer: 1
Undoes
EndUndoes
Redoes
EndRedoes
EndUndoRedoHistory
Fore
SplineSet
825 1073 m 0
 825 1164 810 1184 700 1184 c 1
 700 945 l 1
 823.004882812 945 825 974.320803663 825 1073 c 0
567 1282 m 1
 778 1282 l 2
 923 1282 946 1217 946 1073 c 0
 946 1066.30909091 946.021157025 1059.79272727 946.021157025 1053.45206311 c 0
 946.021157025 972.608595041 942.581818182 920.327272727 848 899 c 1
 937.164948454 889.412371134 939.003400999 827.428844723 939.003400999 759.759382605 c 0
 939.003400999 756.848868105 939 753.927835052 939 751 c 2
 939 430 l 1
 811 430 l 1
 811 762 l 2
 811 812 799 848 699 848 c 1
 699 430 l 1
 567 430 l 1
 567 1282 l 1
751 1390 m 4
 407.275273531 1390 234.943640275 1125.52095672 234.943640275 861.281760946 c 4
 234.943640275 597.521390949 406.651277811 334 751 334 c 4
 1094.72472647 334 1267.05635972 598.479043283 1267.05635972 862.718239054 c 4
 1267.05635972 1126.47860905 1095.34872219 1390 751 1390 c 4
94 862 m 4
 94 1235 378 1519 751 1519 c 4
 1124 1519 1408 1235 1408 862 c 4
 1408 489 1124 205 751 205 c 4
 378 205 94 489 94 862 c 4
EndSplineSet
EndChar

StartChar: ring
Encoding: 730 730 306
Width: 923
VWidth: 0
Flags: HW
LayerCount: 2
UndoRedoHistory
Layer: 1
Undoes
EndUndoes
Redoes
EndRedoes
EndUndoRedoHistory
Fore
SplineSet
571 584 m 0
 571 642 534 700 461 700 c 0
 390 700 354 642 354 584 c 0
 354 526 390 468 461 468 c 0
 534 468 571 526 571 584 c 0
261 584 m 0
 261 683 332 771 461 771 c 0
 591 771 661 683 661 584 c 0
 661 484 591 396 461 396 c 0
 332 396 261 484 261 584 c 0
EndSplineSet
EndChar

StartChar: s
Encoding: 115 115 307
Width: 805
VWidth: 0
Flags: HW
LayerCount: 2
UndoRedoHistory
Layer: 1
Undoes
EndUndoes
Redoes
EndRedoes
EndUndoRedoHistory
Fore
SplineSet
88 1165 m 0
 88 1407 209 1518 411 1518 c 0
 613 1518 720 1401 720 1050 c 2
 720 978 l 1
 525 978 l 1
 525 1082 l 2
 525 1250 497 1342 413 1342 c 0
 331 1342 292 1302 288 1177 c 1
 286 1081 329 984 425 889 c 1
 533 788 l 1
 671 656 745 509 745 344 c 0
 745 117 645 -20 426 -20 c 0
 213 -20 100 103 100 414 c 2
 100 527 l 1
 299 527 l 1
 299 415 l 2
 299 247 333 155 417 155 c 0
 501 155 539 202 539 343 c 0
 539 449 491 553 389 653 c 0
 375 668 316 722 283 754 c 0
 156 875 88 1012 88 1165 c 0
EndSplineSet
EndChar

StartChar: section
Encoding: 167 167 313
Width: 805
VWidth: 0
Flags: HW
LayerCount: 2
UndoRedoHistory
Layer: 1
Undoes
EndUndoes
Redoes
EndRedoes
EndUndoRedoHistory
Fore
SplineSet
339 1074 m 1
 338 1075 l 1
 286 1045 257 998 257 948 c 0
 257 881 325 821 514 673 c 1
 557 702 588 742 588 794 c 0
 588 867 523 943 339 1074 c 1
88 1487 m 0
 88 1664 217 1782 411 1782 c 0
 596 1782 719 1626 719 1393 c 2
 719 1332 l 1
 525 1332 l 1
 525 1418 l 2
 525 1586 453 1637 391 1637 c 0
 310 1637 268 1571 268 1493 c 0
 268 1414 342 1317 425 1249 c 1
 672 1055 745 915 745 800 c 0
 745 692 657 640 586 596 c 1
 717 485 745 367 745 281 c 0
 745 100 617 -20 426 -20 c 0
 230 -20 100 100 100 340 c 2
 100 434 l 1
 299 434 l 1
 299 342 l 2
 299 212 317 125 437 125 c 0
 519 125 559 187 559 281 c 0
 559 623 87 636 87 953 c 0
 87 1050 141 1129 242 1172 c 1
 150 1255 88 1381 88 1487 c 0
EndSplineSet
EndChar

StartChar: semicolon
Encoding: 59 59 314
Width: 561
VWidth: 0
Flags: HW
LayerCount: 2
UndoRedoHistory
Layer: 1
Undoes
EndUndoes
Redoes
EndRedoes
EndUndoRedoHistory
Fore
SplineSet
133 1234 m 1
 414 1234 l 1
 414 954 l 1
 133 954 l 1
 133 1234 l 1
143 534 m 1
 428 534 l 1
 428 291 l 1
 314 -103 l 1
 190 -103 l 1
 276 282 l 1
 143 282 l 1
 143 534 l 1
EndSplineSet
EndChar

StartChar: seven
Encoding: 55 55 315
Width: 892
VWidth: 0
Flags: HW
LayerCount: 2
UndoRedoHistory
Layer: 1
Undoes
EndUndoes
Redoes
EndRedoes
EndUndoRedoHistory
Fore
SplineSet
113 1761 m 1
 815 1761 l 1
 815 1611 l 1
 811 1570 732 1388 655 1113 c 1
 570 820 484 431 457 1 c 1
 236 1 l 1
 272 481 381 880 476 1183 c 1
 549 1429 612 1577 614 1587 c 1
 113 1587 l 1
 113 1761 l 1
EndSplineSet
EndChar

StartChar: six
Encoding: 54 54 316
Width: 892
VWidth: 0
Flags: HW
LayerCount: 2
UndoRedoHistory
Layer: 1
Undoes
EndUndoes
Redoes
EndRedoes
EndUndoRedoHistory
Fore
SplineSet
618 573 m 2
 618 834 590 926 476 926 c 0
 391 926 327 880 313 854 c 1
 313 482 l 2
 313 256 345 158 470 158 c 0
 586 158 618 215 618 440 c 2
 618 573 l 2
107 1257 m 2
 107 1635 202 1780 464 1780 c 0
 707 1780 775 1641 777 1309 c 1
 777 1249 l 1
 578 1249 l 1
 578 1282 l 1
 577 1528 569 1603 455 1603 c 0
 337 1603 313 1527 313 1262 c 2
 313 1016 l 1
 354 1071 430 1101 501 1102 c 1
 748 1110 821 945 821 569 c 2
 821 462 l 2
 821 148 748 -20 470 -20 c 0
 171 -20 107 198 107 516 c 2
 107 1257 l 2
EndSplineSet
EndChar

StartChar: slash
Encoding: 47 47 317
Width: 783
VWidth: 0
Flags: HW
LayerCount: 2
UndoRedoHistory
Layer: 1
Undoes
EndUndoes
Redoes
EndRedoes
EndUndoRedoHistory
Fore
SplineSet
526 1768 m 1
 709 1768 l 1
 269 0 l 1
 87 0 l 1
 526 1768 l 1
EndSplineSet
EndChar

StartChar: sterling
Encoding: 163 163 319
Width: 892
VWidth: 0
Flags: HW
LayerCount: 2
UndoRedoHistory
Layer: 1
Undoes
EndUndoes
Redoes
EndRedoes
EndUndoRedoHistory
Fore
SplineSet
173 1383 m 0
 173 1665 304 1781 520 1781 c 0
 739 1781 841 1652 841 1381 c 2
 841 1246 l 1
 655 1246 l 1
 655 1393 l 2
 655 1526 635 1625 520 1625 c 0
 436 1625 363 1573 363 1386 c 0
 363 1286 384 1146 437 954 c 1
 787 954 l 1
 787 809 l 1
 476 809 l 1
 485 751 491 688 491 634 c 0
 491 402 435 232 297 164 c 1
 842 164 l 1
 842 0 l 1
 65 0 l 1
 65 143 l 1
 229 215 292 354 292 632 c 0
 292 689 286 753 275 809 c 1
 38 809 l 1
 38 954 l 1
 241 954 l 1
 194 1127 173 1269 173 1383 c 0
EndSplineSet
EndChar

StartChar: summation
Encoding: 8721 8721 320
Width: 716
VWidth: 0
Flags: HW
LayerCount: 2
UndoRedoHistory
Layer: 1
Undoes
EndUndoes
Redoes
EndRedoes
EndUndoRedoHistory
Fore
SplineSet
116 1761 m 1
 663 1761 l 1
 663 1581 l 1
 350 1581 l 1
 588 880 l 1
 350 185 l 1
 663 185 l 1
 663 0 l 1
 116 0 l 1
 116 181 l 1
 361 881 l 1
 116 1585 l 1
 116 1761 l 1
EndSplineSet
EndChar

StartChar: t
Encoding: 116 116 321
Width: 612
VWidth: 0
Flags: HW
LayerCount: 2
UndoRedoHistory
Layer: 1
Undoes
EndUndoes
Redoes
EndRedoes
EndUndoRedoHistory
Fore
SplineSet
183 1760 m 1
 388 1760 l 1
 388 1488 l 1
 550 1488 l 1
 550 1336 l 1
 388 1336 l 1
 388 241 l 2
 388 165 404 154 552 154 c 1
 552 -9 l 1
 411 -9 l 2
 218 -9 183 54 183 223 c 2
 183 1336 l 1
 46 1336 l 1
 46 1488 l 1
 183 1488 l 1
 183 1760 l 1
EndSplineSet
EndChar

StartChar: thorn
Encoding: 254 254 323
Width: 939
VWidth: 0
Flags: HW
LayerCount: 2
UndoRedoHistory
Layer: 1
Undoes
EndUndoes
Redoes
EndRedoes
EndUndoRedoHistory
Fore
SplineSet
608 1065 m 2
 608 1230 598 1345 492 1345 c 0
 405 1345 353 1305 353 1065 c 2
 353 452 l 2
 353 253 375 155 487 155 c 1
 587 156 608 250 608 460 c 2
 608 1065 l 2
147 1779 m 1
 353 1779 l 1
 353 1375 l 1
 393 1473 478 1513 559 1513 c 0
 776 1513 814 1305 814 1030 c 2
 814 487 l 2
 814 203 769 -18 526 -18 c 0
 450 -18 385 37 353 100 c 1
 353 -274 l 1
 147 -274 l 1
 147 1779 l 1
EndSplineSet
EndChar

StartChar: three
Encoding: 51 51 324
Width: 908
VWidth: 0
Flags: HW
LayerCount: 2
UndoRedoHistory
Layer: 1
Undoes
EndUndoes
Redoes
EndRedoes
EndUndoRedoHistory
Fore
SplineSet
118 1319 m 2
 118 1626 205 1780 453 1780 c 0
 698 1780 802 1624 802 1319 c 0
 802 1124 751 974 624 927 c 1
 756 867 806 690 806 485 c 0
 806 148 702 -20 448 -20 c 0
 200 -20 114 141 114 474 c 2
 114 552 l 1
 314 552 l 1
 314 471 l 2
 314 234 331 155 453 155 c 0
 572 155 601 250 601 487 c 0
 601 753 553 841 412 841 c 2
 355 841 l 1
 355 1006 l 1
 410 1006 l 2
 548 1006 599 1062 599 1319 c 0
 599 1558 539 1604 454 1604 c 0
 365 1604 321 1542 321 1316 c 2
 321 1274 l 1
 118 1274 l 1
 118 1319 l 2
EndSplineSet
EndChar

StartChar: threequarters
Encoding: 190 190 325
Width: 1555
VWidth: 0
Flags: HW
LayerCount: 2
UndoRedoHistory
Layer: 1
Undoes
EndUndoes
Redoes
EndRedoes
EndUndoRedoHistory
Fore
SplineSet
1210 325 m 1
 1210 928 l 1
 1048 325 l 1
 1210 325 l 1
1180 1147 m 1
 1336 1147 l 1
 1336 325 l 1
 1426 325 l 1
 1426 219 l 1
 1336 219 l 1
 1336 0 l 1
 1210 0 l 1
 1210 219 l 1
 929 219 l 1
 929 310 l 1
 1180 1147 l 1
123 1446 m 2
 123 1647 183 1747 344 1747 c 0
 504 1747 572 1645 572 1446 c 0
 572 1318 541 1222 458 1191 c 1
 544 1152 575 1036 575 902 c 0
 575 683 505 574 340 574 c 0
 179 574 119 679 119 896 c 2
 119 946 l 1
 251 946 l 1
 251 896 l 2
 251 737 263 686 344 686 c 0
 423 686 442 748 442 904 c 0
 442 1076 408 1136 313 1136 c 2
 285 1136 l 1
 285 1247 l 1
 311 1247 l 1
 401 1248 440 1275 440 1446 c 0
 440 1605 399 1635 343 1635 c 0
 285 1635 256 1595 256 1443 c 1
 255 1419 l 1
 123 1419 l 1
 123 1446 l 2
994 1768 m 1
 1148 1768 l 1
 668 0 l 1
 515 0 l 1
 994 1768 l 1
EndSplineSet
EndChar

StartChar: tilde
Encoding: 732 732 326
Width: 1117
VWidth: 0
Flags: HW
LayerCount: 2
UndoRedoHistory
Layer: 1
Undoes
EndUndoes
Redoes
EndRedoes
EndUndoRedoHistory
Fore
SplineSet
245 492 m 1
 284 627 349 650 425 650 c 0
 506 650 637 576 687 576 c 2
 691 576 l 1
 710 579 726 587 747 647 c 1
 870 619 l 1
 861 582 l 1
 826 449 781 422 705 422 c 0
 617 422 513 504 430 504 c 0
 422 504 414 504 407 502 c 0
 385 497 374 478 356 443 c 1
 245 492 l 1
EndSplineSet
EndChar

StartChar: trademark
Encoding: 8482 8482 327
Width: 1537
VWidth: 0
Flags: HW
LayerCount: 2
UndoRedoHistory
Layer: 1
Undoes
EndUndoes
Redoes
EndRedoes
EndUndoRedoHistory
Fore
SplineSet
103 1761 m 1
 531 1761 l 1
 531 1635 l 1
 398 1635 l 1
 398 476 l 1
 246 476 l 1
 246 1635 l 1
 103 1635 l 1
 103 1761 l 1
1206 1761 m 1
 1413 1761 l 1
 1413 476 l 1
 1273 476 l 1
 1273 1001 l 1
 1285 1498 l 1
 1115 476 l 1
 966 476 l 1
 789 1498 l 1
 801 1001 l 1
 801 476 l 1
 661 476 l 1
 661 1761 l 1
 868 1761 l 1
 1040 717 l 1
 1206 1761 l 1
EndSplineSet
EndChar

StartChar: two
Encoding: 50 50 328
Width: 892
VWidth: 0
Flags: HW
LayerCount: 2
UndoRedoHistory
Layer: 1
Undoes
EndUndoes
Redoes
EndRedoes
EndUndoRedoHistory
Fore
SplineSet
162 1173 m 2
 162 1553 190 1780 497 1780 c 0
 730 1780 786 1536 786 1293 c 0
 786 823 446 600 374 155 c 1
 759 155 l 1
 759 0 l 1
 174 0 l 1
 174 98 l 2
 174 249 261 466 374 685 c 1
 381 696 495 922 516 952 c 1
 560 1035 590 1188 590 1310 c 0
 590 1554 544 1604 482 1604 c 0
 418 1604 364 1562 364 1294 c 2
 364 1065 l 1
 162 1065 l 1
 162 1173 l 2
EndSplineSet
EndChar

StartChar: u
Encoding: 117 117 329
Width: 968
VWidth: 0
Flags: HW
LayerCount: 2
UndoRedoHistory
Layer: 1
Undoes
EndUndoes
Redoes
EndRedoes
EndUndoRedoHistory
Fore
SplineSet
616 1500 m 1
 822 1500 l 1
 822 0 l 1
 616 0 l 1
 616 153 l 1
 586 59 510 -20 388 -20 c 0
 254 -20 137 73 137 312 c 2
 137 1500 l 1
 342 1500 l 1
 342 335 l 2
 342 219 382 158 471 158 c 0
 570 158 616 235 616 340 c 2
 616 1500 l 1
EndSplineSet
EndChar

StartChar: underscore
Encoding: 95 95 337
Width: 748
VWidth: 0
Flags: HW
LayerCount: 2
UndoRedoHistory
Layer: 1
Undoes
EndUndoes
Redoes
EndRedoes
EndUndoRedoHistory
Fore
SplineSet
48 -46 m 1
 699 -46 l 1
 699 -198 l 1
 48 -198 l 1
 48 -46 l 1
EndSplineSet
EndChar

StartChar: uni00AD
Encoding: 173 173 339
Width: 696
VWidth: 0
Flags: HW
LayerCount: 2
UndoRedoHistory
Layer: 1
Undoes
EndUndoes
Redoes
EndRedoes
EndUndoRedoHistory
Fore
SplineSet
90 741 m 1
 606 741 l 1
 606 573 l 5
 90 573 l 5
 90 741 l 1
EndSplineSet
EndChar

StartChar: uni00B2
Encoding: 178 178 340
Width: 846
VWidth: 0
Flags: HW
LayerCount: 2
UndoRedoHistory
Layer: 1
Undoes
EndUndoes
Redoes
EndRedoes
EndUndoRedoHistory
Fore
SplineSet
222 1340 m 2
 222 1618 243 1779 468 1779 c 0
 638 1779 680 1602 680 1427 c 0
 680 1087 433 915 381 603 c 1
 664 603 l 1
 664 490 l 1
 226 490 l 1
 226 557 l 2
 226 681 452 1142 482 1179 c 1
 514 1238 536 1350 536 1438 c 0
 536 1617 502 1652 456 1652 c 0
 408 1652 370 1618 370 1428 c 2
 370 1262 l 1
 222 1262 l 1
 222 1340 l 2
EndSplineSet
EndChar

StartChar: uni00B3
Encoding: 179 179 341
Width: 868
VWidth: 0
Flags: HW
LayerCount: 2
UndoRedoHistory
Layer: 1
Undoes
EndUndoes
Redoes
EndRedoes
EndUndoRedoHistory
Fore
SplineSet
201 1467 m 2
 201 1674 264 1777 436 1777 c 0
 606 1777 680 1671 680 1467 c 0
 680 1336 647 1238 560 1206 c 1
 651 1166 682 1047 682 910 c 0
 682 684 608 571 431 571 c 0
 259 571 197 680 197 902 c 2
 197 956 l 1
 339 956 l 1
 339 902 l 2
 339 742 352 689 435 689 c 0
 518 689 536 752 536 911 c 0
 536 1086 502 1148 402 1148 c 2
 373 1148 l 1
 373 1261 l 1
 401 1261 l 1
 497 1262 535 1294 535 1467 c 0
 535 1627 492 1658 435 1658 c 0
 374 1658 344 1617 344 1464 c 2
 344 1439 l 1
 201 1439 l 1
 201 1467 l 2
EndSplineSet
EndChar

StartChar: uni00B9
Encoding: 185 185 342
Width: 627
VWidth: 0
Flags: HW
LayerCount: 2
UndoRedoHistory
Layer: 1
Undoes
EndUndoes
Redoes
EndRedoes
EndUndoRedoHistory
Fore
SplineSet
302 1759 m 1
 409 1759 l 1
 409 487 l 1
 253 487 l 1
 253 1557 l 1
 214 1519 145 1499 90 1499 c 1
 90 1600 l 1
 169 1609 269 1666 302 1759 c 1
EndSplineSet
EndChar

StartChar: uni0237
Encoding: 567 567 383
Width: 540
VWidth: 0
Flags: HW
LayerCount: 2
UndoRedoHistory
Layer: 1
Undoes
EndUndoes
Redoes
EndRedoes
EndUndoRedoHistory
Fore
SplineSet
188 1500 m 1
 394 1500 l 1
 394 70 l 2
 394 -101 307 -155 227 -159 c 1
 155 -166 85 -153 80 -150 c 1
 80 -6 l 1
 82 -6 115 -9 139 -7 c 0
 177 -3 188 23 188 60 c 2
 188 1500 l 1
EndSplineSet
EndChar

StartChar: uni02C9
Encoding: 713 713 384
Width: 696
VWidth: 0
Flags: HW
LayerCount: 2
UndoRedoHistory
Layer: 1
Undoes
EndUndoes
Redoes
EndRedoes
EndUndoRedoHistory
Fore
SplineSet
90 741 m 1
 606 741 l 1
 606 599 l 5
 90 599 l 5
 90 741 l 1
EndSplineSet
EndChar

StartChar: uni0307
Encoding: 775 775 385
Width: 572
VWidth: 0
Flags: HW
LayerCount: 2
UndoRedoHistory
Layer: 1
Undoes
EndUndoes
Redoes
EndRedoes
EndUndoRedoHistory
Fore
SplineSet
147 716 m 1
 425 716 l 1
 425 458 l 1
 147 458 l 1
 147 716 l 1
EndSplineSet
EndChar

StartChar: uni0311
Encoding: 785 785 386
Width: 1016
VWidth: 0
Flags: HW
LayerCount: 2
UndoRedoHistory
Layer: 1
Undoes
EndUndoes
Redoes
EndRedoes
EndUndoRedoHistory
Fore
SplineSet
270 1632 m 1
 268 1775 342 1860 502 1863 c 0
 656 1866 738 1786 740 1643 c 1
 740 1628 l 1
 634 1626 l 1
 633 1727 569 1746 502 1745 c 0
 438 1744 375 1724 376 1621 c 1
 270 1619 l 1
 270 1632 l 1
EndSplineSet
EndChar

StartChar: uni2074
Encoding: 8308 8308 401
Width: 855
VWidth: 0
Flags: HW
LayerCount: 2
UndoRedoHistory
Layer: 1
Undoes
EndUndoes
Redoes
EndRedoes
EndUndoRedoHistory
Fore
SplineSet
483 915 m 1
 483 1526 l 1
 316 915 l 1
 483 915 l 1
448 1761 m 1
 619 1761 l 1
 619 915 l 1
 711 915 l 1
 711 803 l 1
 619 803 l 1
 619 579 l 1
 483 579 l 1
 483 803 l 1
 188 803 l 1
 188 900 l 1
 448 1761 l 1
EndSplineSet
EndChar

StartChar: uni2215
Encoding: 8725 8725 402
Width: 829
VWidth: 0
Flags: HW
LayerCount: 2
UndoRedoHistory
Layer: 1
Undoes
EndUndoes
Redoes
EndRedoes
EndUndoRedoHistory
Fore
SplineSet
531 1768 m 1
 709 1768 l 1
 253 0 l 1
 76 0 l 1
 531 1768 l 1
EndSplineSet
EndChar

StartChar: uniFB00
Encoding: 64256 64256 404
Width: 1246
VWidth: 0
Flags: HW
LayerCount: 2
UndoRedoHistory
Layer: 1
Undoes
EndUndoes
Redoes
EndRedoes
EndUndoRedoHistory
Fore
SplineSet
823 1515 m 2
 823 1688 894 1786 1055 1786 c 0
 1134 1786 1198 1767 1204 1765 c 1
 1204 1622 l 1
 1177 1626 1153 1628 1133 1628 c 0
 1043 1628 1028 1588 1028 1523 c 2
 1028 1442 l 1
 1204 1442 l 1
 1204 1291 l 1
 1028 1291 l 1
 1028 0 l 1
 823 0 l 1
 823 1291 l 1
 405 1291 l 1
 405 0 l 1
 200 0 l 1
 200 1291 l 1
 71 1291 l 1
 71 1442 l 1
 200 1442 l 1
 200 1515 l 2
 200 1688 271 1786 432 1786 c 0
 511 1786 575 1767 581 1765 c 1
 581 1622 l 1
 554 1626 530 1628 510 1628 c 0
 420 1628 405 1588 405 1523 c 2
 405 1442 l 1
 823 1442 l 1
 823 1515 l 2
EndSplineSet
EndChar

StartChar: uniFB01
Encoding: 64257 64257 405
Width: 1126
VWidth: 0
Flags: HW
LayerCount: 2
UndoRedoHistory
Layer: 1
Undoes
EndUndoes
Redoes
EndRedoes
EndUndoRedoHistory
Fore
SplineSet
773 1800 m 1
 978 1800 l 1
 978 1611 l 1
 773 1611 l 1
 773 1800 l 1
200 1535 m 2
 200 1708 271 1806 432 1806 c 0
 511 1806 575 1787 581 1785 c 1
 581 1642 l 1
 554 1646 530 1648 510 1648 c 0
 420 1648 405 1608 405 1543 c 2
 405 1500 l 1
 978 1500 l 1
 978 0 l 1
 773 0 l 1
 773 1349 l 1
 405 1349 l 1
 405 0 l 1
 200 0 l 1
 200 1349 l 1
 71 1349 l 1
 71 1500 l 1
 200 1500 l 1
 200 1535 l 2
EndSplineSet
EndChar

StartChar: uniFB02
Encoding: 64258 64258 406
Width: 1124
VWidth: 0
Flags: HW
LayerCount: 2
UndoRedoHistory
Layer: 1
Undoes
EndUndoes
Redoes
EndRedoes
EndUndoRedoHistory
Fore
SplineSet
200 1515 m 2
 200 1716 349 1796 543 1796 c 0
 628 1796 680 1788 976 1725 c 1
 976 0 l 1
 771 0 l 1
 771 1622 l 1
 704 1636 645 1642 594 1642 c 0
 474 1642 405 1603 405 1523 c 2
 405 1442 l 1
 581 1442 l 1
 581 1291 l 1
 405 1291 l 1
 405 0 l 1
 200 0 l 1
 200 1291 l 1
 71 1291 l 1
 71 1442 l 1
 200 1442 l 1
 200 1515 l 2
EndSplineSet
EndChar

StartChar: uniFB03
Encoding: 64259 64259 407
Width: 1749
VWidth: 0
Flags: HW
LayerCount: 2
UndoRedoHistory
Layer: 1
Undoes
EndUndoes
Redoes
EndRedoes
EndUndoRedoHistory
Fore
SplineSet
1396 1800 m 1
 1601 1800 l 1
 1601 1611 l 1
 1396 1611 l 1
 1396 1800 l 1
823 1547 m 2
 823 1720 894 1818 1055 1818 c 0
 1134 1818 1198 1799 1204 1797 c 1
 1204 1654 l 1
 1177 1658 1153 1660 1133 1660 c 0
 1043 1660 1028 1620 1028 1555 c 2
 1028 1500 l 1
 1601 1500 l 1
 1601 0 l 1
 1396 0 l 1
 1396 1349 l 1
 1028 1349 l 1
 1028 0 l 1
 823 0 l 1
 823 1349 l 1
 405 1349 l 1
 405 0 l 1
 200 0 l 1
 200 1349 l 1
 71 1349 l 1
 71 1500 l 1
 200 1500 l 1
 200 1547 l 2
 200 1720 271 1818 432 1818 c 0
 511 1818 575 1799 581 1797 c 1
 581 1654 l 1
 554 1658 530 1660 510 1660 c 0
 420 1660 405 1620 405 1555 c 2
 405 1500 l 1
 823 1500 l 1
 823 1547 l 2
EndSplineSet
EndChar

StartChar: uniFB04
Encoding: 64260 64260 408
Width: 1747
VWidth: 0
Flags: HW
LayerCount: 2
UndoRedoHistory
Layer: 1
Undoes
EndUndoes
Redoes
EndRedoes
EndUndoRedoHistory
Fore
SplineSet
823 1515 m 2
 823 1716 972 1796 1166 1796 c 0
 1251 1796 1303 1788 1599 1725 c 1
 1599 0 l 1
 1394 0 l 1
 1394 1622 l 1
 1327 1636 1268 1642 1217 1642 c 0
 1097 1642 1028 1603 1028 1523 c 2
 1028 1442 l 1
 1204 1442 l 1
 1204 1291 l 1
 1028 1291 l 1
 1028 0 l 1
 823 0 l 1
 823 1291 l 1
 405 1291 l 1
 405 0 l 1
 200 0 l 1
 200 1291 l 1
 71 1291 l 1
 71 1442 l 1
 200 1442 l 1
 200 1515 l 2
 200 1688 271 1786 432 1786 c 0
 511 1786 575 1767 581 1765 c 1
 581 1622 l 1
 554 1626 530 1628 510 1628 c 0
 420 1628 405 1588 405 1523 c 2
 405 1442 l 1
 823 1442 l 1
 823 1515 l 2
EndSplineSet
EndChar

StartChar: v
Encoding: 118 118 412
Width: 753
VWidth: 0
Flags: HW
LayerCount: 2
UndoRedoHistory
Layer: 1
Undoes
EndUndoes
Redoes
EndRedoes
EndUndoRedoHistory
Fore
SplineSet
521 1500 m 1
 711 1500 l 1
 496 0 l 1
 255 0 l 1
 42 1500 l 1
 233 1500 l 1
 341 655 l 1
 376 320 l 1
 395 320 l 1
 424 656 l 1
 521 1500 l 1
EndSplineSet
EndChar

StartChar: w
Encoding: 119 119 413
Width: 1160
VWidth: 0
Flags: HW
LayerCount: 2
UndoRedoHistory
Layer: 1
Undoes
EndUndoes
Redoes
EndRedoes
EndUndoRedoHistory
Fore
SplineSet
940 1500 m 1
 1108 1500 l 1
 927 0 l 1
 738 0 l 1
 587 1174 l 1
 407 0 l 1
 226 0 l 1
 51 1500 l 1
 223 1500 l 1
 302 665 l 1
 325 378 l 1
 334 378 l 1
 372 666 l 1
 491 1500 l 1
 545 1500 l 1
 637 1500 l 1
 670 1500 l 1
 789 688 l 1
 830 378 l 1
 838 378 l 1
 862 689 l 1
 940 1500 l 1
EndSplineSet
EndChar

StartChar: x
Encoding: 120 120 418
Width: 743
VWidth: 0
Flags: HW
LayerCount: 2
UndoRedoHistory
Layer: 1
Undoes
EndUndoes
Redoes
EndRedoes
EndUndoRedoHistory
Fore
SplineSet
43 1500 m 1
 224 1500 l 1
 382 1021 l 1
 522 1500 l 1
 708 1500 l 1
 466 766 l 1
 718 0 l 1
 527 0 l 1
 363 510 l 1
 212 0 l 1
 26 0 l 1
 278 773 l 1
 43 1500 l 1
EndSplineSet
EndChar

StartChar: y
Encoding: 121 121 419
Width: 791
VWidth: 0
Flags: HW
LayerCount: 2
UndoRedoHistory
Layer: 1
Undoes
EndUndoes
Redoes
EndRedoes
EndUndoRedoHistory
Fore
SplineSet
558 1500 m 1
 756 1500 l 1
 507 -29 l 1
 482 -192 457 -251 310 -251 c 2
 109 -251 l 1
 109 -96 l 1
 180 -96 l 2
 238 -96 287 -92 296 -72 c 1
 312 -51 305 0 297 53 c 2
 52 1500 l 1
 251 1500 l 1
 359 720 l 1
 403 314 l 1
 421 314 l 1
 460 720 l 1
 558 1500 l 1
EndSplineSet
EndChar

StartChar: yen
Encoding: 165 165 423
Width: 843
VWidth: 0
Flags: HW
LayerCount: 2
UndoRedoHistory
Layer: 1
Undoes
EndUndoes
Redoes
EndRedoes
EndUndoRedoHistory
Fore
SplineSet
85 798 m 5
 763 798 l 5
 763 682 l 5
 506 682 l 5
 506 507 l 5
 763 507 l 5
 763 391 l 5
 85 391 l 5
 85 507 l 5
 377 507 l 5
 377 682 l 5
 85 682 l 5
 85 798 l 5
EndSplineSet
Refer: 115 89 N 1 0 0 1 0 0 2
EndChar

StartChar: z
Encoding: 122 122 425
Width: 680
VWidth: 0
Flags: HW
LayerCount: 2
UndoRedoHistory
Layer: 1
Undoes
EndUndoes
Redoes
EndRedoes
EndUndoRedoHistory
Fore
SplineSet
101 1500 m 1
 618 1500 l 1
 618 1359 l 1
 287 175 l 1
 601 175 l 1
 601 0 l 1
 76 0 l 1
 76 153 l 1
 406 1323 l 1
 101 1323 l 1
 101 1500 l 1
EndSplineSet
EndChar

StartChar: zero
Encoding: 48 48 429
Width: 915
VWidth: 0
Flags: HW
LayerCount: 2
UndoRedoHistory
Layer: 1
Undoes
EndUndoes
Redoes
EndRedoes
EndUndoRedoHistory
Fore
SplineSet
605 1327 m 2
 605 1594 523 1605 453 1605 c 0
 385 1605 307 1596 307 1328 c 2
 307 470 l 2
 307 167 371 154 453 154 c 0
 530 154 605 168 605 470 c 2
 605 1327 l 2
101 1316 m 2
 101 1619 173 1781 455 1781 c 0
 737 1781 811 1619 811 1316 c 2
 811 475 l 2
 811 162 743 -21 455 -21 c 0
 167 -21 101 162 101 475 c 2
 101 1316 l 2
EndSplineSet
EndChar
